<svg xmlns:xlink="http://www.w3.org/1999/xlink" xmlns="http://www.w3.org/2000/svg" class="s1yetyrx icon" width="32"  height="32" ><defs><symbol id="icon_AFA" viewBox="0 0 32 32">
<path d="M5.872 4.291c0.265 0.194 0.529 0.389 0.795 0.581 0.027 0.019 0.032 0.031 0.021 0.062-0.040 0.118-0.073 0.238-0.112 0.356-0.087 0.268-0.176 0.535-0.263 0.803-0.116 0.356-0.23 0.713-0.346 1.069-0.045 0.139-0.1 0.276-0.133 0.432 0.040-0.026 0.070-0.043 0.098-0.064 0.716-0.518 1.434-1.034 2.148-1.555 0.058-0.042 0.084-0.010 0.119 0.015 0.317 0.226 0.634 0.452 0.949 0.68s0.626 0.456 0.939 0.683c0.111 0.081 0.225 0.158 0.348 0.245-0.007-0.031-0.009-0.048-0.014-0.064-0.101-0.317-0.203-0.635-0.304-0.952-0.173-0.541-0.345-1.082-0.52-1.623-0.016-0.051-0.006-0.076 0.034-0.105 0.658-0.48 1.315-0.962 1.972-1.443 0.082-0.060 0.164-0.122 0.263-0.196-0.051 0-0.078 0-0.104 0-0.889-0.001-1.779-0.002-2.668-0.001-0.056 0-0.086-0.013-0.099-0.071-0.014-0.062-0.036-0.123-0.056-0.184-0.183-0.561-0.365-1.122-0.551-1.683-0.081-0.245-0.153-0.493-0.251-0.744-0.016 0.025-0.025 0.041-0.032 0.062-0.151 0.467-0.304 0.933-0.456 1.399-0.124 0.382-0.247 0.765-0.368 1.148-0.017 0.054-0.042 0.071-0.1 0.071-0.742-0.001-1.485 0-2.227 0.001-0.176 0-0.353 0-0.529 0-0.003 0.006-0.005 0.012-0.008 0.018 0.136 0.099 0.273 0.198 0.409 0.297 0.348 0.254 0.696 0.508 1.044 0.763v0zM21.395 3.235c0.248 0.183 0.496 0.368 0.745 0.55 0.49 0.358 0.981 0.715 1.473 1.071 0.029 0.021 0.037 0.033 0.026 0.070-0.094 0.298-0.183 0.598-0.278 0.895-0.101 0.319-0.206 0.637-0.31 0.955-0.081 0.251-0.163 0.502-0.244 0.753-0.004 0.013-0.024 0.025-0.006 0.038 0.013 0.010 0.028 0 0.040-0.009 0.014-0.011 0.029-0.019 0.043-0.029 0.226-0.165 0.452-0.33 0.679-0.494 0.483-0.35 0.967-0.699 1.449-1.051 0.060-0.044 0.103-0.044 0.162 0 0.321 0.237 0.645 0.47 0.967 0.705 0.301 0.219 0.601 0.439 0.902 0.657 0.108 0.078 0.218 0.153 0.33 0.231 0.015-0.029 0.004-0.046-0.001-0.064-0.146-0.456-0.292-0.912-0.438-1.368-0.129-0.402-0.258-0.804-0.387-1.205-0.013-0.039-0.011-0.062 0.029-0.090 0.147-0.101 0.288-0.21 0.432-0.314 0.428-0.312 0.857-0.624 1.285-0.935 0.168-0.122 0.337-0.243 0.506-0.364 0.038-0.041-0.004-0.029-0.020-0.029-0.258 0-0.516 0-0.775 0.001 0 0 0 0 0 0v0c-0.107 0.001-0.214 0.002-0.321 0.002-0.525-0.002-1.050-0.004-1.575-0.006-0.042-0.025-0.087-0.007-0.131-0.012v0c-0.006-0.013-0.014-0.026-0.018-0.040-0.069-0.214-0.138-0.427-0.207-0.641-0.206-0.637-0.412-1.274-0.62-1.91-0.010-0.032-0.012-0.071-0.045-0.101-0.109 0.337-0.216 0.667-0.323 0.998-0.13 0.4-0.259 0.8-0.389 1.2-0.054 0.165-0.109 0.329-0.163 0.494-0.045 0.006-0.092-0.013-0.135 0.012v0c-0.236 0.001-0.473 0.003-0.709 0.004-0.39 0.001-0.781 0-1.172 0v0c-0.224 0-0.448-0.001-0.672-0.001-0.040 0-0.080 0-0.12 0-0.029 0-0.031 0.010-0.011 0.029 0 0 0 0 0 0v0zM12.743 3.235c0.248 0.183 0.496 0.368 0.745 0.55 0.49 0.358 0.981 0.715 1.473 1.071 0.029 0.021 0.037 0.033 0.025 0.070-0.094 0.298-0.183 0.598-0.278 0.895-0.101 0.319-0.206 0.637-0.31 0.955-0.081 0.251-0.163 0.502-0.244 0.753-0.004 0.013-0.024 0.025-0.006 0.038 0.013 0.010 0.028 0 0.040-0.009 0.014-0.011 0.029-0.019 0.043-0.029 0.226-0.165 0.452-0.33 0.679-0.494 0.483-0.35 0.967-0.699 1.449-1.051 0.060-0.044 0.103-0.044 0.162 0 0.321 0.237 0.645 0.47 0.967 0.705 0.301 0.219 0.601 0.439 0.902 0.657 0.108 0.078 0.218 0.153 0.33 0.231 0.015-0.029 0.004-0.046-0.001-0.064-0.146-0.456-0.292-0.912-0.438-1.368-0.129-0.402-0.258-0.804-0.387-1.205-0.013-0.039-0.011-0.062 0.029-0.090 0.147-0.101 0.288-0.21 0.432-0.314 0.428-0.312 0.857-0.624 1.285-0.935 0.168-0.122 0.337-0.243 0.506-0.364 0.038-0.041-0.004-0.029-0.020-0.029-0.258 0-0.516 0-0.775 0.001 0 0 0 0 0 0v0c-0.107 0.001-0.214 0.002-0.321 0.002-0.525-0.002-1.050-0.004-1.575-0.006-0.042-0.025-0.087-0.007-0.131-0.012v0c-0.006-0.013-0.014-0.026-0.018-0.040-0.069-0.214-0.138-0.427-0.207-0.641-0.206-0.637-0.412-1.274-0.62-1.91-0.010-0.032-0.012-0.071-0.045-0.101-0.109 0.337-0.216 0.667-0.323 0.998-0.13 0.4-0.259 0.8-0.389 1.2-0.054 0.165-0.109 0.329-0.163 0.494-0.045 0.006-0.092-0.013-0.135 0.012v0c-0.236 0.001-0.473 0.003-0.709 0.004-0.39 0.001-0.781 0-1.172 0v0c-0.224 0-0.448-0.001-0.672-0.001-0.040 0-0.080 0-0.12 0-0.029 0-0.031 0.010-0.011 0.029 0 0 0 0 0 0v0zM8.332 8.638c0.043-0.060 0.090-0.070 0.153-0.046 0.077 0.028 0.137 0.081 0.195 0.135 0.507 0.472 1.062 0.877 1.652 1.239 0.495 0.304 1.021 0.522 1.596 0.616 0.047 0.008 0.094 0.016 0.141 0.025l0.105 0.020c0.14 0.027 0.281 0.051 0.424 0.057v0h0.005c0.028 0 0.058-0.010 0.083 0.013v0l0.089 0.004c0.009 0 0.018 0 0.028-0.001l0.014-0.001c0.025-0.002 0.051-0.002 0.074 0.015 0.096 0.001 0.192 0.003 0.288 0.005 0.004 0.002 0.009 0.004 0.013 0.005-0.004-0.001-0.009-0.003-0.013-0.005 0.627 0 1.255-0.001 1.882-0.001 1.748 0 3.496 0 5.244 0 0.031 0 0.063 0.001 0.094 0.002 0.090-0.001 0.18-0.003 0.271-0.004v0l0.006-0.004c0.037-0.022 0.078-0.006 0.117-0.009 0.274-0.022 0.535-0.101 0.791-0.194 0.299-0.108 0.571-0.27 0.839-0.439 0.105-0.066 0.215-0.128 0.345-0.112 0.109 0.013 0.164 0.097 0.204 0.187 0.144 0.33 0.27 0.666 0.393 1.004 0.289 0.792 0.578 1.584 0.839 2.386 0.036 0.11 0.062 0.223 0.089 0.336 0.020 0.085-0.016 0.125-0.104 0.118-0.141-0.011-0.26-0.085-0.383-0.143-0.292-0.137-0.58-0.283-0.87-0.424-0.5-0.243-1.020-0.422-1.566-0.532-0.142-0.029-0.283-0.059-0.426-0.082v0 0c-0.028-0.002-0.058 0.010-0.083-0.009l-0.005-0.004c-0.033-0.002-0.066-0.003-0.099-0.005v0h-0.008c-0.050-0.001-0.101 0.015-0.149-0.012-0.206-0.008-0.412-0.007-0.619 0v0c-0.043 0.018-0.087 0.017-0.132 0.014l-0.022-0.001c-0.018-0.001-0.037-0.002-0.055-0.001-0.062 0.002-0.123 0.003-0.185 0.005v0c-0.036 0.018-0.073 0.017-0.11 0.015l-0.019-0.001c-0.015-0.001-0.031-0.002-0.046 0-0.045 0.001-0.089 0.003-0.134 0.004v0l-0.007 0.004c-0.043 0.022-0.089 0.005-0.134 0.009-0.044 0.002-0.089 0.003-0.134 0.005v0l-0.006 0.004c-0.022 0.012-0.045 0.012-0.068 0.010l-0.014-0.001c-0.012-0.001-0.023-0.002-0.035-0.001-0.039 0.001-0.078 0.003-0.117 0.004-0.021 0.017-0.044 0.016-0.068 0.014l-0.013-0.001c-0.008-0.001-0.017-0.001-0.025 0-0.033 0.001-0.067 0.003-0.1 0.004v0l-0.005 0.004c-0.031 0.020-0.067 0.006-0.1 0.009v0l-0.083 0.005-0.005 0.004c-0.026 0.019-0.056 0.007-0.084 0.009-0.096 0.013-0.192 0.027-0.288 0.040v0 2.969c0 0.109 0.005 0.109 0.123 0.112 0.033-0.001 0.066-0.003 0.1-0.004v0l0.005-0.004c0.026-0.019 0.056-0.007 0.084-0.009 0.348-0.037 0.655-0.15 0.857-0.459 0.070-0.106 0.089-0.229 0.109-0.35l0.005-0.030 0.003-0.015c0.003-0.035-0.013-0.073 0.013-0.105 0.002-0.033 0.003-0.066 0.005-0.099v0c0.002-0.036-0.014-0.074 0.013-0.107 0.017-0.217 0.065-0.42 0.231-0.58 0.208-0.201 0.452-0.15 0.557 0.119 0.034 0.088 0.049 0.179 0.057 0.273 0 0 0 0 0 0 0.029 0.068 0.009 0.139 0.013 0.209-0.001 0.009-0.003 0.017-0.003 0.025 0 1.145 0 2.29 0 3.436 0 0.009 0.002 0.017 0.003 0.025v0 0c-0.005 0.104 0.016 0.209-0.009 0.313l-0.004 0.016c-0.002 0.067-0.003 0.134-0.005 0.201v0c0 0 0 0 0 0 0 0.008 0 0.017 0.001 0.026l0.001 0.013c0.002 0.024 0.003 0.047-0.014 0.068-0.001 0.006-0.002 0.011-0.002 0.017l-0.010 0.068c-0.021 0.148-0.047 0.294-0.131 0.425-0.034 0.052-0.074 0.093-0.135 0.11v0l-0.006 0.003c-0.032 0.019-0.064 0.018-0.096-0.004-0.201-0.032-0.31-0.165-0.377-0.344-0.069-0.185-0.098-0.377-0.121-0.573-0.001-0.011-0.003-0.022-0.004-0.033l-0.004-0.033c-0.019-0.16-0.044-0.321-0.139-0.462-0.138-0.205-0.347-0.298-0.573-0.358-0.115-0.031-0.235-0.048-0.355-0.051v0h-0.007c-0.039-0.001-0.080 0.014-0.116-0.012-0.102-0.009-0.107-0.009-0.107 0.085v0.013c0.001 2.173 0.001 4.346 0.002 6.519 0 0.031-0.002 0.063-0.003 0.094v0l0.008 0.654 0.004 0.004c0.015 0.018 0.010 0.040 0.010 0.061 0 0.237-0.001 0.473-0.001 0.71-0.004-0.016-0.006-0.032-0.009-0.049 0 0.016 0.001 0.033 0.009 0.049v0l0.005 0.219 0.004 0.004c0.018 0.023 0.007 0.051 0.010 0.076 0.050 0.015 0.086-0.019 0.122-0.042 0.155-0.1 0.305-0.207 0.439-0.334 0.017-0.016 0.034-0.030 0.059-0.030v0c0.077-0.11 0.183-0.193 0.27-0.295 0.166-0.195 0.305-0.406 0.424-0.631 0.118-0.222 0.232-0.446 0.348-0.669 0.076-0.21 0.188-0.402 0.279-0.605 0.163-0.365 0.33-0.727 0.495-1.091 0.101-0.22 0.203-0.439 0.302-0.66 0.113-0.251 0.221-0.505 0.335-0.756 0.019-0.042 0.023-0.093 0.061-0.127 0.038-0.13 0.106-0.247 0.158-0.37 0.097-0.228 0.194-0.455 0.293-0.682 0.088-0.201 0.181-0.399 0.268-0.6 0.112-0.257 0.22-0.517 0.333-0.774 0.082-0.188 0.168-0.373 0.25-0.561 0.094-0.216 0.184-0.434 0.279-0.651 0.083-0.19 0.171-0.378 0.254-0.569 0.094-0.216 0.184-0.435 0.279-0.651 0.111-0.252 0.225-0.502 0.338-0.753 0.102-0.226 0.206-0.452 0.309-0.677 0.026-0.057 0.060-0.11 0.107-0.152 0.075-0.066 0.106-0.060 0.154 0.030 0.089 0.168 0.15 0.348 0.215 0.527 0.354 0.976 0.694 1.957 1.031 2.94 0.223 0.65 0.455 1.298 0.68 1.947 0.277 0.799 0.55 1.6 0.826 2.399 0.231 0.668 0.465 1.336 0.699 2.004 0.078 0.224 0.16 0.446 0.24 0.67v0c0.147 0.339 0.36 0.632 0.607 0.904 0.095 0.105 0.191 0.208 0.281 0.317v0-0.001c0.117 0.143 0.093 0.229-0.011 0.313-0.026 0.021-0.046 0.049-0.069 0.074v0l-0.002 0.002c-0.003 0.004-0.006 0.010-0.010 0.010-0.202 0.008-0.403 0.021-0.604-0.007v0c-0.587-0.001-1.175-0.002-1.762-0.003-0.433-0.001-0.867-0.001-1.3-0.001 0 0 0 0 0 0v0c-0.154 0.001-0.308 0.001-0.462 0.002-0.020 0-0.040 0.002-0.056-0.014-0.063-0.002-0.125-0.006-0.188-0.005-0.053 0.001-0.107-0.003-0.128-0.058-0.023-0.060-0.014-0.123 0.029-0.176 0.041-0.050 0.092-0.089 0.144-0.127l0.028-0.020c0.014-0.010 0.028-0.020 0.042-0.031 0.151-0.114 0.263-0.261 0.364-0.418 0.051-0.079 0.091-0.165 0.136-0.248 0.057-0.161 0.117-0.321 0.138-0.492v0c0 0 0 0 0 0 0.001-0.030-0.012-0.063 0.013-0.090 0-0.046 0-0.092 0-0.139v0l-0.004-0.005c-0.019-0.025-0.007-0.055-0.010-0.083-0.022-0.096-0.044-0.192-0.067-0.289v0l-0.013-0.043c-0.075-0.244-0.173-0.478-0.282-0.709 0 0 0 0 0 0l-0.005-0.005c-0.024-0.020-0.053-0.019-0.082-0.019-1.147 0-2.294 0-3.441 0.001-0.023 0-0.045 0.003-0.068 0.005-0.222 0.325-0.387 0.679-0.521 1.048-0.002 0.005-0.007 0.009-0.011 0.013-0.003 0.025-0.008 0.049-0.014 0.074l-0.007 0.029c-0.011 0.049-0.020 0.099-0.015 0.15v0 0c0 0 0 0 0 0v0 0.232c0 0.221 0.108 0.395 0.244 0.554 0.223 0.262 0.517 0.397 0.852 0.451 0.088 0.014 0.163 0.052 0.22 0.117 0.096 0.11 0.089 0.216-0.014 0.323-0.012 0.012-0.022 0.026-0.032 0.039v0l-0.003 0.004c-0.011 0.014-0.026 0.015-0.042 0.015h-0.008c-0.003 0-0.006 0-0.008 0-0.329 0-0.658-0.001-0.987-0.002v0h-1.341c-0.062 0-0.123 0-0.185 0l-0.37-0.001c-0.092 0.002-0.184 0.004-0.276 0.006v0l-0.009 0.004c-0.035 0.015-0.072 0.014-0.109 0.012l-0.018-0.001c-0.015-0.001-0.031-0.002-0.046-0.002-0.133 0.003-0.265 0.001-0.398 0.001-0.008 0.297-0.009 0.594 0.001 0.891v0c0.314 0.279 0.544 0.625 0.765 0.977 0.076 0.089 0.132 0.191 0.188 0.292 0.116 0.208 0.289 0.354 0.494 0.465 0.242 0.13 0.493 0.238 0.773 0.256v0h0.005c0.029 0 0.059-0.011 0.084 0.013v0l0.099 0.005c0.010 0.006 0.022 0.007 0.033 0.007-0.011-0.002-0.022-0.005-0.033-0.007 0.058 0.003 0.118-0.015 0.175 0.012v0l0.391 0.005c0.058 0.004 0.118-0.016 0.175 0.013v0l0.017 0.002c0.117 0.014 0.233 0.029 0.294 0.155 0.026 0.033 0.023 0.067 0.002 0.102-0.039 0.099-0.089 0.192-0.158 0.274-0.206 0.269-0.466 0.475-0.755 0.647-0.205 0.137-0.426 0.245-0.649 0.348-0.216 0.1-0.438 0.182-0.668 0.244-0.057 0.015-0.115 0.029-0.172 0.044v0l-0.157 0.012c-0.028 0.002-0.055 0.003-0.083 0.005v0l0.001 0.006c-0.045 0.028-0.095 0.009-0.142 0.013-0.094 0-0.188 0-0.282 0 0 0 0 0 0 0-0.036-0.002-0.073 0.014-0.107-0.012v0l-0.023-0.001c-0.202-0.015-0.389-0.087-0.575-0.163-0.289-0.117-0.553-0.282-0.786-0.484-0.199-0.173-0.38-0.368-0.56-0.563-0.015-0.016-0.029-0.032-0.044-0.048l-0.029-0.032-0.043-0.048-0.044-0.048c-0.174-0.193-0.356-0.381-0.598-0.494-0.272-0.127-0.561-0.211-0.848-0.297-0.449-0.134-0.909-0.231-1.355-0.376-0.037-0.012-0.073-0.027-0.108-0.044-0.129-0.063-0.143-0.141-0.046-0.252 0.079-0.089 0.174-0.16 0.278-0.217 0.12-0.067 0.239-0.135 0.359-0.202 0.139-0.092 0.29-0.164 0.419-0.272 0.206-0.171 0.384-0.363 0.474-0.622 0.002-0.007 0.010-0.012 0.015-0.018v0l0.002-0.014c0.011-0.071 0.059-0.131 0.069-0.203 0 0 0 0 0 0-0.004-0.047-0.004-0.094-0.002-0.141l0.001-0.040c0.002-0.067 0.002-0.134-0.014-0.201-0.006-0.026 0.010-0.049 0.028-0.068 0.002-0.081 0.004-0.161 0.006-0.241 0-0.143 0-0.286 0-0.428v0c0-0.423 0.001-0.845 0.001-1.268v0l-0.001-0.028c-0.001-0.028-0.002-0.056-0.002-0.083 0.001-1.94 0.003-3.88 0.004-5.82 0-0.037-0.002-0.074-0.004-0.111v0c0-0.528-0.001-1.055-0.001-1.583 0-1.375 0-2.75-0.001-4.125 0-0.008 0.001-0.017 0.003-0.026l0.001-0.008c0.004-0.030 0.005-0.061-0.042-0.072 0 0 0 0 0 0v0c-0.033 0.002-0.066 0.003-0.099 0.005v0l-0.005 0.004c-0.026 0.019-0.056 0.007-0.085 0.008-0.033 0.002-0.066 0.003-0.099 0.005-0.033 0.027-0.071 0.010-0.106 0.013v0l-0.116 0.005-0.007 0.004c-0.026 0.013-0.053 0.012-0.081 0.010l-0.015-0.001c-0.012-0.001-0.025-0.001-0.037 0-0.045 0.001-0.090 0.003-0.134 0.004v0l-0.011 0.004c-0.070 0.024-0.143 0.004-0.215 0.009-0.214 0-0.428 0-0.642 0 0 0 0 0 0 0-0.052-0.003-0.107 0.016-0.157-0.012v0l-0.134-0.005c-0.010-0.001-0.020 0-0.030 0.001l-0.012 0.001c-0.022 0.002-0.044 0.001-0.064-0.015v0l-0.083-0.004c0 0 0 0 0 0-0.030-0.002-0.062 0.012-0.088-0.014-0.428-0.041-0.843-0.138-1.24-0.3-0.351-0.143-0.677-0.334-0.974-0.572-0.171-0.137-0.335-0.284-0.499-0.43-0.439-0.388-0.795-0.841-1.096-1.34-0.166-0.275-0.306-0.562-0.408-0.867-0.045-0.136-0.080-0.274-0.086-0.418v0c-0.022-0.034-0.022-0.068 0-0.101 0-0.072 0.023-0.134 0.067-0.195zM20.772 26.691c-0.019-0.001-0.037 0-0.055 0.009 0.018-0.004 0.037-0.006 0.055-0.009zM25.058 26.669c-0.002 0.009-0.007 0.018-0.007 0.026-0.005-0.009-0.011-0.017-0.016-0.026h0.023zM4.11 26.503c-0.003 0.018-0.001 0.036 0.006 0.054-0.013-0.018-0.025-0.036-0.037-0.054h0.031zM9.931 14.24c0.051-0.037 0.107-0.029 0.15 0.023 0.045 0.054 0.064 0.12 0.086 0.184 0.298 0.849 0.595 1.698 0.891 2.547 0.039 0.112 0.078 0.224 0.117 0.336v0l0.252 0.722c0.004 0.010 0.004 0.022 0.006 0.032v0l0.072 0.206c0.023 0.017 0.016 0.047 0.030 0.069 0.091 0.26 0.183 0.519 0.274 0.779 0.041 0.117 0.081 0.234 0.121 0.352 0.119 0.338 0.238 0.676 0.355 1.015 0.142 0.408 0.282 0.816 0.424 1.224 0.007 0.019 0.015 0.037 0.010 0.057 0.133 0.357 0.267 0.715 0.379 1.079 0.085 0.239 0.171 0.478 0.255 0.718 0.070 0.2 0.137 0.401 0.206 0.601v0l0.031 0.081c0.081 0.216 0.16 0.434 0.249 0.647 0.093 0.224 0.239 0.417 0.394 0.602 0.044 0.052 0.089 0.103 0.135 0.154l0.068 0.076c0.068 0.076 0.136 0.153 0.199 0.233 0.14 0.179 0.107 0.294-0.094 0.398-0.012 0.006-0.025 0.014-0.037 0.021-0.021 0.022-0.048 0.015-0.073 0.015-0.174 0.001-0.347 0.001-0.521 0-0.025 0-0.052 0.007-0.073-0.014v0 0 0c-0.362-0.001-0.724-0.003-1.086-0.004-0.605-0.002-1.209-0.003-1.814-0.004-0.026 0-0.051 0.002-0.077 0.004-0.168 0-0.336 0.001-0.505 0.001-0.022 0-0.046 0.005-0.065-0.014-0.034-0.002-0.069-0.010-0.102-0.005-0.094 0.016-0.143-0.044-0.165-0.112-0.023-0.070 0.029-0.131 0.086-0.17 0.081-0.056 0.164-0.106 0.238-0.173 0.255-0.232 0.42-0.52 0.525-0.844 0.022-0.067 0.033-0.138 0.050-0.207v0l0.003-0.082c0-0.1 0.001-0.2 0.001-0.3 0 0 0 0 0 0l-0.004-0.080c0 0 0 0 0 0l-0.003-0.002c-0.014-0.008-0.012-0.021-0.006-0.035-0.058-0.283-0.178-0.544-0.281-0.812-0.015-0.038-0.017-0.084-0.053-0.112-0.865 0-1.73 0-2.595 0-0.030 0-0.063 0.010-0.090-0.014-0.302-0.001-0.604-0.001-0.906-0.005-0.049-0.001-0.062 0.028-0.078 0.061-0.12 0.244-0.248 0.484-0.352 0.736-0.004 0.010-0.012 0.018-0.018 0.027-0.030 0.122-0.084 0.236-0.109 0.36-0.022 0.108-0.037 0.215-0.026 0.326 0.025 0.026 0.011 0.058 0.014 0.087 0.010 0.164 0.1 0.292 0.191 0.419s0.208 0.224 0.329 0.319l0.035 0.027c0.152 0.118 0.333 0.161 0.514 0.198l0.053 0.011c0.124 0.025 0.218 0.078 0.253 0.207v0l0.004 0.005c0.018 0.026 0.016 0.053-0.003 0.079-0.045 0.097-0.124 0.145-0.227 0.158v0c-0.068 0.029-0.14 0.009-0.21 0.013v0h-0.659c-0.845-0.001-1.69-0.002-2.535-0.003-0.046 0-0.091 0.002-0.137 0.004 0 0 0 0 0 0-0.182 0.001-0.365 0.001-0.547 0.002-0.002 0-0.003 0-0.005 0h-0.009c-0.015 0-0.030-0.001-0.042-0.014-0.062-0.018-0.137 0.025-0.188-0.048-0.033-0.047-0.061-0.087-0.042-0.151 0.022-0.072 0.041-0.136 0.13-0.145 0.433-0.045 0.796-0.249 1.128-0.513 0.114-0.091 0.221-0.194 0.31-0.312 0.214-0.267 0.378-0.564 0.536-0.867 0.122-0.235 0.237-0.473 0.354-0.709 0.102-0.228 0.214-0.451 0.315-0.68 0.089-0.2 0.184-0.397 0.271-0.598 0.108-0.247 0.222-0.49 0.333-0.735 0.004-0.010 0.012-0.018 0.019-0.027v0l0.024-0.059c0.040-0.099 0.079-0.199 0.122-0.296 0.104-0.235 0.212-0.469 0.317-0.704 0.043-0.097 0.084-0.195 0.125-0.293 0.141-0.316 0.282-0.632 0.423-0.948 0.068-0.152 0.137-0.305 0.205-0.457v0l0.008-0.026c0.039-0.12 0.101-0.229 0.15-0.344 0.082-0.192 0.164-0.384 0.247-0.575l0.166-0.383c0.021-0.049 0.057-0.091 0.067-0.145v0l0.376-0.857c0.068-0.155 0.136-0.311 0.204-0.466 0.008-0.017 0.020-0.032 0.031-0.048 0.008-0.020 0.016-0.040 0.024-0.060l0.048-0.119c0.024-0.060 0.049-0.119 0.075-0.178 0.096-0.218 0.191-0.437 0.288-0.655 0.102-0.231 0.199-0.466 0.325-0.686 0.027-0.048 0.072-0.090 0.117-0.123zM23.040 19.269c-0.080 0.163-0.155 0.324-0.23 0.486-0.144 0.31-0.291 0.62-0.435 0.93-0.106 0.227-0.212 0.455-0.317 0.683-0.014 0.031-0.024 0.065-0.058 0.082-0.002 0-0.004 0-0.006 0.001 0.006 0.033-0.013 0.060-0.025 0.089-0.103 0.248-0.216 0.491-0.326 0.735-0.043 0.094-0.038 0.098 0.064 0.102 0.593 0.021 1.186 0.016 1.779 0.017 0.044 0 0.090-0.009 0.129 0.021 0-0.001 0-0.001 0-0.002 0.028-0.038 0.070-0.033 0.11-0.033 0.14-0.001 0.28 0 0.419-0.001v0c0.090-0.001 0.096-0.009 0.063-0.094-0.181-0.475-0.361-0.95-0.542-1.424-0.195-0.509-0.389-1.018-0.589-1.525-0.008-0.021-0.014-0.043-0.035-0.067zM8.95 19.046c-0.047 0.059-0.069 0.129-0.101 0.194-0.039 0.077-0.057 0.167-0.132 0.224v0h-0.001c-0.031 0.14-0.099 0.266-0.157 0.395-0.138 0.303-0.28 0.604-0.422 0.905-0.012 0.025-0.014 0.061-0.053 0.062 0.003 0.005 0.005 0.011 0.006 0.017-0.014 0.089-0.063 0.165-0.099 0.245-0.142 0.308-0.284 0.616-0.426 0.925-0.007 0.016-0.014 0.031-0.021 0.047-0.021 0.048-0.012 0.080 0.047 0.077 0.14-0.007 0.279 0.018 0.419 0.018 0.551 0.001 1.101 0.004 1.652-0.002v0 0l0.063-0.001c0.146-0.003 0.292-0.013 0.438-0.021-0.018-0.018-0.025-0.044-0.034-0.068-0.147-0.38-0.29-0.761-0.439-1.141-0.011-0.029-0.023-0.059-0.009-0.091 0.001-0.001 0.002-0.001 0.003-0.002-0.001 0-0.002 0-0.003 0-0.031-0.010-0.041-0.035-0.050-0.060l-0.004-0.010c-0.001-0.003-0.002-0.007-0.004-0.010-0.116-0.292-0.226-0.586-0.341-0.878-0.011-0.027-0.027-0.055-0.008-0.084 0 0-0.001 0-0.001 0-0.037-0.011-0.039-0.046-0.050-0.074-0.079-0.192-0.152-0.386-0.229-0.579-0.011-0.028-0.017-0.060-0.045-0.087zM14.914 17.487c0 0.015 0.001 0.030 0.002 0.045 0.007 0.001 0.014 0.003 0.022 0.004-0.008-0.015-0.015-0.032-0.023-0.048z"></path>
</symbol></defs><use xlink:href="#icon_AFA" fill="#FFFFFF"></use></svg>