<svg xmlns:xlink="http://www.w3.org/1999/xlink" xmlns="http://www.w3.org/2000/svg" class="s1yetyrx icon" width="32"  height="32" ><defs><symbol id="icon_Affiliate" viewBox="0 0 32 32">
<path d="M16.417 0.723c1.611 0 2.917 1.408 2.917 3.145 0 0.024 0 0.048-0.001 0.072 1.057 0.338 2.053 0.836 2.963 1.465 0.517-0.504 1.203-0.812 1.955-0.812 1.611 0 2.917 1.408 2.917 3.145 0 0.894-0.346 1.701-0.902 2.274 0.513 1.021 0.899 2.129 1.135 3.297 1.542 0.082 2.768 1.456 2.768 3.139 0 1.737-1.306 3.145-2.917 3.145-0.023 0-0.045 0-0.067-0.001-0.271 0.989-0.655 1.929-1.133 2.801 0.486 0.559 0.784 1.314 0.784 2.143 0 1.737-1.306 3.145-2.917 3.145-0.769 0-1.468-0.32-1.989-0.844-0.807 0.515-1.679 0.928-2.598 1.223l0.002 0.071c0 1.737-1.306 3.145-2.917 3.145s-2.917-1.408-2.917-3.145l0.005 0.161c-1.083-0.254-2.11-0.671-3.057-1.225-0.53 0.6-1.279 0.974-2.108 0.974-1.611 0-2.917-1.408-2.917-3.145 0-0.811 0.285-1.551 0.753-2.109-0.584-0.98-1.045-2.054-1.36-3.196l-0.066 0.003c-1.611 0-2.917-1.408-2.917-3.145s1.306-3.145 2.917-3.145l-0.149 0.006c0.268-1.325 0.729-2.572 1.35-3.705-0.487-0.56-0.784-1.314-0.784-2.143 0-1.737 1.306-3.145 2.917-3.145 0.769 0 1.468 0.321 1.99 0.845 1.048-0.669 2.204-1.167 3.433-1.455 0.077-1.663 1.352-2.984 2.912-2.984zM13.678 4.954l-0.060 0.013c-1.019 0.26-1.981 0.682-2.862 1.241 0.157 0.384 0.243 0.808 0.243 1.254 0 1.737-1.306 3.145-2.917 3.145-0.398 0-0.778-0.086-1.124-0.242-0.512 0.971-0.898 2.035-1.128 3.163 1.076 0.462 1.836 1.595 1.836 2.92 0 1.244-0.669 2.319-1.641 2.829 0.27 0.973 0.657 1.892 1.145 2.736 0.359-0.17 0.754-0.264 1.169-0.264 1.611 0 2.917 1.408 2.917 3.145 0 0.383-0.063 0.75-0.18 1.089 0.809 0.474 1.683 0.834 2.603 1.063 0.409-1.204 1.48-2.061 2.738-2.061 1.179 0 2.195 0.755 2.655 1.84 0.766-0.255 1.493-0.605 2.172-1.036-0.157-0.384-0.243-0.808-0.243-1.254 0-1.737 1.306-3.145 2.917-3.145 0.398 0 0.778 0.086 1.124 0.242 0.388-0.735 0.704-1.526 0.934-2.357-0.972-0.509-1.642-1.584-1.642-2.827 0-1.325 0.759-2.458 1.834-2.922-0.203-0.996-0.527-1.943-0.955-2.821-0.301 0.116-0.625 0.178-0.963 0.178-1.611 0-2.917-1.408-2.917-3.145 0-0.463 0.093-0.902 0.259-1.298-0.775-0.539-1.622-0.969-2.52-1.271-0.46 1.087-1.476 1.842-2.656 1.842-1.257 0-2.328-0.857-2.739-2.059z"></path>
</symbol></defs><use xlink:href="#icon_Affiliate" fill="#FFFFFF"></use></svg>