<svg xmlns:xlink="http://www.w3.org/1999/xlink" xmlns="http://www.w3.org/2000/svg" class="s1yetyrx icon" width="32"  height="32" ><defs><symbol id="icon_Baseball" viewBox="0 0 32 32">
<path d="M8.641 16.74c0.699-0.461 1.379-0.91 2.047-1.349 0.266 0.256 0.502 0.54 0.791 0.748 0.338 0.244 0.776 0.15 1.031-0.153 0.257-0.304 0.259-0.735-0.004-1.055-0.178-0.216-0.367-0.424-0.551-0.635l1.661-1.979c0.231 0.139 0.468 0.288 0.711 0.426 0.403 0.229 0.903 0.104 1.124-0.276 0.233-0.398 0.101-0.89-0.303-1.138-0.231-0.142-0.46-0.287-0.694-0.435 0.333-0.755 0.662-1.5 0.998-2.264 0.238 0.059 0.492 0.127 0.748 0.187 0.508 0.118 0.927-0.115 1.044-0.577 0.115-0.456-0.143-0.868-0.639-1.010-0.251-0.072-0.506-0.134-0.726-0.192 0.066-0.859 0.174-1.691 0.181-2.525s-0.086-1.669-0.136-2.504c6.651-0.11 12.833 4.841 13.866 11.656-1.528 0.11-3.175 0.413-4.94 0.911-0.103-0.224-0.204-0.454-0.312-0.68-0.23-0.478-0.69-0.668-1.123-0.468-0.438 0.203-0.584 0.659-0.366 1.158 0.097 0.223 0.199 0.446 0.298 0.668-0.691 0.452-1.365 0.892-2.070 1.352-0.172-0.189-0.355-0.385-0.534-0.586-0.313-0.352-0.823-0.392-1.175-0.090-0.332 0.285-0.364 0.797-0.066 1.155 0.174 0.209 0.355 0.411 0.534 0.617l-1.66 1.979c-0.224-0.134-0.454-0.275-0.69-0.41-0.42-0.241-0.923-0.122-1.145 0.268s-0.083 0.894 0.314 1.14c0.216 0.134 0.429 0.271 0.655 0.413-0.323 0.758-0.641 1.506-0.969 2.278-0.25-0.062-0.502-0.13-0.757-0.189-0.491-0.113-0.917 0.122-1.030 0.562-0.118 0.459 0.136 0.881 0.623 1.022 0.244 0.070 0.491 0.131 0.766 0.203-0.303 1.672-0.331 3.345-0.049 5.019-6.524 0.177-12.688-4.65-13.899-11.649 1.689-0.034 3.328-0.332 4.929-0.949 0.137 0.291 0.254 0.574 0.401 0.84 0.213 0.384 0.671 0.523 1.060 0.341 0.392-0.183 0.564-0.613 0.411-1.034-0.028-0.076-0.064-0.15-0.098-0.225-0.085-0.19-0.171-0.381-0.257-0.573l0.001 0.001z"></path>
<path d="M17.742 29.889c-0.271-1.498-0.272-2.983 0.012-4.498 0.242 0.061 0.476 0.123 0.711 0.179 0.501 0.117 0.93-0.123 1.047-0.581 0.112-0.439-0.143-0.856-0.617-0.999-0.233-0.071-0.468-0.13-0.758-0.209 0.268-0.615 0.523-1.2 0.792-1.815 0.235 0.14 0.422 0.247 0.605 0.362 0.468 0.294 0.964 0.191 1.228-0.256 0.237-0.402 0.073-0.889-0.387-1.156-0.18-0.105-0.356-0.217-0.573-0.351l1.349-1.607c0.163 0.181 0.309 0.335 0.447 0.498 0.332 0.393 0.873 0.475 1.212 0.178 0.392-0.345 0.404-0.841 0.030-1.254-0.14-0.154-0.275-0.314-0.464-0.531 0.559-0.366 1.097-0.718 1.66-1.087 0.132 0.276 0.233 0.497 0.342 0.715 0.221 0.439 0.674 0.61 1.096 0.419 0.415-0.188 0.578-0.655 0.385-1.114-0.091-0.217-0.193-0.428-0.299-0.66 1.427-0.547 2.888-0.8 4.394-0.805 0.573 6.59-4.461 13.59-12.21 14.57l-0.003 0.002z"></path>
<path d="M9.615 14.148c-0.571 0.372-1.102 0.717-1.661 1.081-0.118-0.253-0.214-0.466-0.317-0.675-0.225-0.46-0.685-0.645-1.107-0.451-0.429 0.198-0.586 0.659-0.382 1.135 0.090 0.209 0.185 0.414 0.288 0.646-1.43 0.546-2.897 0.799-4.412 0.802-0.433-7.157 4.991-13.791 12.21-14.557 0.265 1.483 0.273 2.965-0.009 4.477-0.232-0.057-0.458-0.115-0.684-0.167-0.509-0.12-0.932 0.106-1.057 0.562s0.144 0.884 0.651 1.027c0.216 0.061 0.434 0.115 0.699 0.186-0.262 0.609-0.511 1.189-0.78 1.813-0.213-0.125-0.399-0.226-0.58-0.339-0.487-0.304-0.983-0.206-1.249 0.252-0.225 0.389-0.045 0.895 0.408 1.156 0.173 0.099 0.34 0.209 0.554 0.341l-1.35 1.609c-0.168-0.19-0.314-0.351-0.453-0.515-0.34-0.398-0.862-0.465-1.208-0.151-0.38 0.345-0.391 0.833-0.030 1.234 0.144 0.161 0.285 0.326 0.467 0.535z"></path>
</symbol></defs><use xlink:href="#icon_Baseball" fill="#FFFFFF"></use></svg>