<svg xmlns:xlink="http://www.w3.org/1999/xlink" xmlns="http://www.w3.org/2000/svg" class="s1yetyrx icon" width="32"  height="32" ><defs><symbol id="icon_Basketball" viewBox="0 0 32 32">
<path d="M18.605 9.818c0.624 0.725 1.239 1.439 1.773 2.060-0.318 0.373-0.6 0.693-0.869 1.022-0.779 0.956-1.228 2.078-1.537 3.248-0.467 1.77-0.877 3.556-1.317 5.332-0.597 2.411-1.174 4.828-2.070 7.152-0.127 0.329-0.287 0.646-0.414 0.976-0.062 0.164-0.16 0.194-0.313 0.168-1.179-0.189-2.32-0.516-3.412-0.994-1.754-0.766-3.291-1.847-4.607-3.237-0.101-0.106-0.142-0.194-0.119-0.354 0.219-1.549 0.848-2.94 1.639-4.264 1.524-2.554 3.524-4.711 5.699-6.714 1.667-1.536 3.44-2.943 5.304-4.234 0.060-0.042 0.12-0.081 0.245-0.164v0.002z"></path>
<path d="M15.793 7.436c0.565 0.464 1.125 0.923 1.715 1.407-0.137 0.103-0.247 0.19-0.361 0.271-2.626 1.846-5.067 3.911-7.264 6.251-1.747 1.86-3.34 3.842-4.436 6.17-0.312 0.662-0.537 1.365-0.799 2.049-0.038 0.098-0.064 0.202-0.172 0.324-0.342-0.603-0.71-1.194-1.021-1.813-0.623-1.24-1.033-2.555-1.246-3.924-0.308-1.973-0.203-3.93 0.322-5.858 0.028-0.103 0.139-0.209 0.239-0.262 1.17-0.627 2.432-0.989 3.723-1.258 1.323-0.275 2.653-0.51 3.973-0.796 1.875-0.407 3.539-1.278 5.085-2.393 0.072-0.052 0.148-0.102 0.243-0.166h-0.002z"></path>
<path d="M15.592 30c0.377-1.089 0.781-2.074 1.059-3.093 0.653-2.395 1.255-4.804 1.861-7.212 0.381-1.511 0.679-3.045 1.262-4.498 0.245-0.61 0.561-1.182 1.032-1.652 0.114-0.114 0.241-0.212 0.402-0.353 0.299 0.602 0.595 1.161 0.855 1.736 0.936 2.069 1.544 4.237 1.964 6.463 0.32 1.698 0.505 3.411 0.6 5.136 0.017 0.309-0.064 0.497-0.328 0.69-1.8 1.314-3.791 2.171-5.985 2.526-0.892 0.144-1.804 0.174-2.723 0.257v0.001z"></path>
<path d="M25.988 25.717c-0.363-4.607-1.27-9.031-3.529-13.15 0.409-0.088 0.796-0.16 1.178-0.254 1.301-0.322 2.345 0.215 3.305 0.997 1.121 0.912 2.048 2.011 2.949 3.132 0.050 0.062 0.078 0.165 0.073 0.246-0.215 3.45-1.495 6.439-3.875 8.951-0.017 0.019-0.042 0.032-0.102 0.075l0.001 0.001z"></path>
<path d="M3.22 10.234c0.42-0.721 0.78-1.42 1.215-2.070 1.224-1.827 2.808-3.276 4.719-4.369 0.16-0.091 0.281-0.103 0.45-0.027 1.705 0.759 3.317 1.682 4.862 2.726 0.028 0.020 0.051 0.046 0.139 0.126-0.743 0.42-1.449 0.842-2.176 1.221-1.164 0.609-2.444 0.846-3.72 1.082-1.801 0.333-3.604 0.658-5.327 1.309-0.022 0.009-0.050 0-0.162 0l-0.001 0.002z"></path>
<path d="M29.858 14.145c-0.642-0.612-1.256-1.244-1.921-1.819-0.831-0.721-1.757-1.29-2.875-1.457-0.816-0.122-1.609 0.045-2.4 0.214-0.168 0.036-0.334 0.085-0.497 0.136-0.469 0.144-0.459 0.138-0.758-0.235-0.521-0.652-1.057-1.292-1.613-1.968 0.651-0.364 1.322-0.756 2.009-1.119 1.395-0.736 2.921-1.006 4.464-1.207 0.085-0.011 0.211 0.043 0.269 0.108 1.652 1.907 2.725 4.097 3.196 6.577 0.049 0.257 0.084 0.517 0.126 0.771z"></path>
<path d="M16.868 6.489c1.418-1.054 2.217-2.37 1.853-4.219 2.451 0.502 4.546 1.54 6.434 3.147-1.181 0.252-2.338 0.438-3.386 0.957-1.039 0.514-2.049 1.085-3.091 1.641-0.561-0.472-1.155-0.973-1.811-1.524v-0.001z"></path>
<path d="M11.164 2.865c1.963-0.721 4.027-1.007 6.188-0.798 0.019 0.644 0.12 1.291-0.092 1.912-0.078 0.229-0.261 0.43-0.427 0.618-0.335 0.38-0.69 0.742-0.986 1.058-1.617-0.963-3.15-1.876-4.683-2.79h-0.001z"></path>
</symbol></defs><use xlink:href="#icon_Basketball" fill="#FFFFFF"></use></svg>