<svg xmlns:xlink="http://www.w3.org/1999/xlink" xmlns="http://www.w3.org/2000/svg" class="s1yetyrx icon" width="32"  height="32" ><defs><symbol id="icon_ClassicDice" viewBox="0 0 32 32">
<path d="M19.828 2.098l5.816 3.634c2.112 1.32 3.396 3.636 3.396 6.126v8.286c0 2.491-1.283 4.807-3.396 6.126l-5.816 3.634c-2.342 1.463-5.314 1.463-7.656 0l-5.816-3.634c-2.112-1.32-3.396-3.636-3.396-6.126v-8.286c0-2.491 1.283-4.807 3.396-6.126l5.816-3.634c2.342-1.463 5.314-1.463 7.656 0zM20.707 25.327c-0.429-0.465-1.333-0.239-2.019 0.504s-0.895 1.721-0.466 2.186c0.429 0.465 1.333 0.239 2.019-0.504s0.895-1.721 0.466-2.186zM10.99 17.942c-1.206-1.313-2.844-1.662-3.66-0.78s-0.501 2.661 0.704 3.975c1.206 1.313 2.844 1.662 3.66 0.78s0.501-2.661-0.704-3.975zM24.172 19.271c-0.429-0.465-1.333-0.239-2.019 0.504s-0.895 1.721-0.466 2.186c0.429 0.465 1.333 0.239 2.019-0.504s0.895-1.721 0.466-2.186zM27.37 13.79c-0.429-0.464-1.333-0.239-2.019 0.504s-0.895 1.721-0.466 2.186c0.429 0.465 1.333 0.239 2.019-0.504s0.895-1.721 0.466-2.186zM21.134 6.031c-1.317 0-2.385 0.731-2.385 1.633s1.068 1.633 2.385 1.633c1.317 0 2.385-0.731 2.385-1.633s-1.068-1.633-2.385-1.633zM10.979 6.031c-1.317 0-2.385 0.731-2.385 1.633s1.068 1.633 2.385 1.633c1.317 0 2.385-0.731 2.385-1.633s-1.068-1.633-2.385-1.633z"></path>
</symbol></defs><use xlink:href="#icon_ClassicDice" fill="#FFFFFF"></use></svg>