<svg xmlns:xlink="http://www.w3.org/1999/xlink" xmlns="http://www.w3.org/2000/svg" class="s1yetyrx icon" width="32"  height="32" ><defs><symbol id="icon_Blog" viewBox="0 0 32 32">
<path d="M24.7 2.619c2.883 0 5.22 2.337 5.22 5.22v11.062c0 2.883-2.337 5.22-5.22 5.22l-7.584-0.001-8.174 5.262-0.001-5.262-1.641 0.001c-2.883 0-5.22-2.337-5.22-5.22v-11.062c0-2.883 2.337-5.22 5.22-5.22h17.399zM9.040 11.578c-0.961 0-1.74 0.802-1.74 1.792s0.779 1.792 1.74 1.792c0.961 0 1.74-0.802 1.74-1.792s-0.779-1.792-1.74-1.792zM22.96 11.578c-0.961 0-1.74 0.802-1.74 1.792s0.779 1.792 1.74 1.792c0.961 0 1.74-0.802 1.74-1.792s-0.779-1.792-1.74-1.792zM16 11.578c-0.961 0-1.74 0.802-1.74 1.792s0.779 1.792 1.74 1.792c0.961 0 1.74-0.802 1.74-1.792s-0.779-1.792-1.74-1.792z"></path>
</symbol></defs><use xlink:href="#icon_Blog" fill="#FFFFFF"></use></svg>