<svg xmlns:xlink="http://www.w3.org/1999/xlink" xmlns="http://www.w3.org/2000/svg" class="s1yetyrx icon" width="32"  height="32" ><defs><symbol id="icon_Casino" viewBox="0 0 32 32">
<path d="M5.217 12.264l11.137 15.905c0.622 0.888 1.914 1.059 2.882 0.382l7.384-5.171-5.133 7.331c-0.564 0.806-1.672 1.020-2.538 0.52l-0.15-0.096-16.375-11.466c-0.833-0.583-1.089-1.679-0.618-2.518l0.097-0.154 3.315-4.734zM16.624 0.846c0.853-0.598 2.025-0.402 2.612 0.437v0l10.863 15.513c0.587 0.838 0.37 2.007-0.483 2.604v0l-10.012 7.010c-0.853 0.598-2.025 0.402-2.612-0.437v0l-10.863-15.513c-0.587-0.838-0.37-2.007 0.483-2.604v0zM22.158 9.289c-0.785-0.832-1.926-1.219-3.052-1.035-0.547 0.089-1.046 0.292-1.489 0.603-0.672 0.47-1.124 1.131-1.329 1.854-0.75-0.054-1.525 0.144-2.197 0.615-0.444 0.311-0.805 0.71-1.076 1.194-0.555 0.994-0.582 2.198-0.071 3.222 0.539 1.076 1.571 1.786 2.76 1.901 0.009 0.001 0.019 0.005 0.030 0.004v0l4.647 0.323c0.295 0.019 0.587-0.071 0.824-0.237 0.239-0.167 0.423-0.407 0.504-0.693v0l1.286-4.477c0.002-0.008 0.005-0.021 0.007-0.030 0.3-1.159-0.017-2.369-0.843-3.244z"></path>
</symbol></defs><use xlink:href="#icon_Casino" fill="#FFFFFF"></use></svg>