<svg xmlns:xlink="http://www.w3.org/1999/xlink" xmlns="http://www.w3.org/2000/svg" class="s1yetyrx icon" width="32"  height="32" ><defs><symbol id="icon_Cloud9" viewBox="0 0 32 32">
<path d="M28.528 15.443c-3.030-1.453-6.649-0.145-8.084 2.923-0.206 0.44-0.358 0.898-0.456 1.373l3.523 1.689c-0.045-0.254-0.050-0.508-0.017-0.763s0.105-0.5 0.214-0.733c0.581-1.242 2.046-1.772 3.273-1.183s1.75 2.072 1.169 3.313c-0.577 1.233-2.026 1.763-3.248 1.194l-6.517-3.129 3.203-6.845c1.188-2.992-0.117-6.441-3.034-7.84-3.029-1.453-6.648-0.145-8.083 2.922s-0.143 6.731 2.886 8.184c0.442 0.212 0.897 0.364 1.356 0.462l1.668-3.566c-0.251 0.045-0.502 0.051-0.755 0.017s-0.494-0.107-0.723-0.217c-1.226-0.588-1.75-2.072-1.169-3.313s2.046-1.772 3.273-1.183c1.218 0.584 1.741 2.052 1.179 3.289l-3.056 6.531-6.801-3.261c-2.955-1.203-6.362 0.118-7.744 3.072-1.435 3.067-0.143 6.731 2.886 8.184s6.648 0.145 8.083-2.922c0.209-0.448 0.359-0.908 0.455-1.373l-3.523-1.69c0.086 0.491 0.029 1.012-0.197 1.497-0.58 1.242-2.046 1.771-3.273 1.183s-1.75-2.072-1.169-3.314c0.577-1.233 2.026-1.763 3.248-1.193l16.572 7.951c2.955 1.203 6.362-0.119 7.744-3.072 1.435-3.067 0.143-6.731-2.886-8.185z"></path>
</symbol></defs><use xlink:href="#icon_Cloud9" fill="#FFFFFF"></use></svg>