<svg xmlns:xlink="http://www.w3.org/1999/xlink" xmlns="http://www.w3.org/2000/svg" class="s1yetyrx icon" width="32"  height="32" ><defs><symbol id="icon_Dl" viewBox="0 0 32 32">
<path d="M7.681 24.825v-7.054c1.709 0 3.095 1.381 3.104 3.088 0.143-0.052 0.28-0.11 0.412-0.174 0.687-0.336 1.207-0.885 1.56-1.646s0.53-1.777 0.53-3.046c0-1.27-0.178-2.282-0.534-3.038s-0.88-1.301-1.573-1.637c-0.692-0.336-1.544-0.504-2.555-0.504h-2.034v10.376h0.005v3.637h-4.271v-17.649h6.515c1.798 0 3.348 0.352 4.649 1.056s2.305 1.715 3.012 3.033c0.707 1.318 1.060 2.894 1.060 4.727 0 1.838-0.352 3.418-1.056 4.74s-1.708 2.334-3.012 3.038c-1.27 0.685-2.771 1.037-4.503 1.055l-0.004 0.001h-1.306zM18.067 24.825v-17.649c2.356 0 4.266 1.91 4.266 4.266v9.919h3.878c1.913 0 3.464 1.551 3.464 3.464v0 0h-11.608z"></path>
</symbol></defs><use xlink:href="#icon_Dl" fill="#FFFFFF"></use></svg>