<svg xmlns:xlink="http://www.w3.org/1999/xlink" xmlns="http://www.w3.org/2000/svg" class="s1yetyrx icon" width="32"  height="32" ><defs><symbol id="icon_FeatureBuy-in" viewBox="0 0 32 32">
<path d="M14.905 16.754c-0.405-0.427-0.75-0.811-1.117-1.171-0.72-0.705-1.647-0.734-2.292-0.088-0.647 0.648-0.617 1.564 0.095 2.296 0.696 0.715 1.402 1.419 2.115 2.116 0.794 0.776 1.656 0.778 2.446-0.002 1.235-1.221 2.459-2.453 3.685-3.683 0.17-0.17 0.345-0.339 0.485-0.533 0.61-0.843 0.238-2.045-0.741-2.367-0.647-0.213-1.216-0.045-1.697 0.44-0.967 0.976-1.939 1.947-2.98 2.992v0zM16.271 1.918c0.423 0.431 0.911 0.816 1.257 1.302 1.216 1.709 2.392 3.447 3.563 5.188 0.207 0.308 0.453 0.47 0.803 0.571 2.162 0.623 4.319 1.265 6.476 1.906 1.404 0.417 1.776 1.574 0.878 2.745-1.381 1.802-2.778 3.593-4.146 5.404-0.159 0.21-0.261 0.525-0.256 0.788 0.045 2.305 0.126 4.609 0.183 6.914 0.025 1.009-0.513 1.697-1.42 1.761-0.344 0.024-0.714-0.081-1.048-0.197-2.092-0.73-4.173-1.491-6.269-2.21-0.279-0.096-0.649-0.093-0.928 0.003-2.161 0.741-4.312 1.51-6.461 2.284-0.594 0.214-1.146 0.208-1.657-0.185-0.461-0.355-0.611-0.844-0.594-1.412 0.066-2.218 0.109-4.438 0.193-6.655 0.019-0.492-0.080-0.877-0.391-1.271-1.3-1.647-2.571-3.317-3.845-4.985-0.246-0.322-0.46-0.67-0.688-1.006 0-0.241 0-0.482 0-0.723 0.25-0.765 0.822-1.118 1.567-1.329 2.13-0.601 4.253-1.231 6.37-1.876 0.251-0.077 0.516-0.272 0.667-0.488 1.241-1.773 2.437-3.578 3.694-5.341 0.325-0.456 0.814-0.795 1.228-1.187h0.826z"></path>
</symbol></defs><use xlink:href="#icon_FeatureBuy-in" fill="#FFFFFF"></use></svg>