<svg xmlns:xlink="http://www.w3.org/1999/xlink" xmlns="http://www.w3.org/2000/svg" class="s1yetyrx icon" width="32"  height="32" ><defs><symbol id="icon_Favorites" viewBox="0 0 32 32">
<path d="M10.892 22.302c0.001 0.795 0.759 1.24 1.431 0.893 1.058-0.546 2.112-1.1 3.16-1.665 0.352-0.189 0.682-0.189 1.026-0.004 0.415 0.223 0.832 0.44 1.249 0.66 0.645 0.34 1.29 0.681 1.935 1.020 0.342 0.18 0.683 0.166 0.995-0.059 0.319-0.23 0.449-0.546 0.378-0.945-0.206-1.164-0.403-2.329-0.606-3.493-0.070-0.401 0.012-0.741 0.318-1.034 0.854-0.82 1.697-1.653 2.545-2.48 0.289-0.282 0.408-0.617 0.276-1.008-0.126-0.374-0.394-0.585-0.792-0.641-1.144-0.159-2.285-0.336-3.43-0.486-0.462-0.061-0.783-0.264-0.987-0.692-0.49-1.024-1.003-2.037-1.5-3.059-0.185-0.379-0.453-0.633-0.892-0.637-0.443-0.003-0.704 0.257-0.888 0.637-0.491 1.013-1.009 2.014-1.486 3.034-0.213 0.455-0.54 0.658-1.024 0.72-1.155 0.148-2.306 0.326-3.458 0.492-0.317 0.046-0.545 0.218-0.689 0.5-0.201 0.395-0.128 0.79 0.221 1.135 0.836 0.827 1.675 1.649 2.515 2.471 0.251 0.245 0.416 0.523 0.354 0.886-0.114 0.674-0.238 1.346-0.355 2.019-0.104 0.6-0.206 1.201-0.297 1.736zM2.001 15.989c0.003-7.728 6.28-13.996 14.010-13.989 7.734 0.007 13.992 6.275 13.989 14.010-0.003 7.729-6.281 13.998-14.010 13.99-7.733-0.008-13.992-6.277-13.988-14.011z"></path>
</symbol></defs><use xlink:href="#icon_Favorites" fill="#FFFFFF"></use></svg>