<svg xmlns:xlink="http://www.w3.org/1999/xlink" xmlns="http://www.w3.org/2000/svg" class="s1yetyrx icon" width="32"  height="32" ><defs><symbol id="icon_Forum" viewBox="0 0 32 32">
<path d="M22.873 3.803c3.796 0 6.873 3.325 6.873 7.426v9.541c0 4.101-3.077 7.426-6.873 7.426-2.138 0-4.047-1.054-5.308-2.708v-3.933c0.913-0.165 1.811-0.477 2.69-0.932 0.361-0.187 0.502-0.631 0.315-0.993s-0.631-0.502-0.993-0.315c-0.665 0.344-1.335 0.59-2.012 0.738v-1.919h3.017l0.163-0.013c0.108-0.017 0.212-0.050 0.311-0.098 0.481-0.238 0.705-0.789 0.545-1.285l-0.060-0.147-4.549-9.211c1.205-2.146 3.388-3.58 5.88-3.58zM15.997 20.224c-1.082 0-2.149-0.238-3.204-0.718l-0.395-0.191c-0.362-0.186-0.806-0.043-0.991 0.319s-0.043 0.806 0.319 0.991c1.389 0.713 2.816 1.072 4.272 1.072h0.021c-0.388 3.657-3.311 6.5-6.86 6.5-3.707 0-6.732-3.103-6.898-6.996l-0.007-0.336v-9.731c0-4.049 3.091-7.331 6.905-7.331 2.96 0 5.045 1.532 6.605 4.596 0.147 0.289 0.303 0.592 0.467 0.911l0.004-0.013 0.224 0.454c0.922 1.781 2.094 3.996 3.516 6.648 0.024 0.038 0.034 0.083 0.034 0.128-0.001 0.122-0.081 0.224-0.191 0.259l-0.087 0.013-3.667-0.073-0.001 3.497-0.061 0.002-0.004 0.001zM22.757 9.097c-0.813 0-1.473 0.711-1.473 1.588s0.659 1.588 1.473 1.588c0.813 0 1.473-0.711 1.473-1.588s-0.659-1.588-1.473-1.588zM9.221 9.097c-0.813 0-1.473 0.711-1.473 1.588s0.659 1.588 1.473 1.588c0.813 0 1.473-0.711 1.473-1.588s-0.659-1.588-1.473-1.588z"></path>
</symbol></defs><use xlink:href="#icon_Forum" fill="#FFFFFF"></use></svg>