<svg xmlns:xlink="http://www.w3.org/1999/xlink" xmlns="http://www.w3.org/2000/svg" class="s1yetyrx icon" width="32"  height="32" ><defs><symbol id="icon_FrenchOpenMen" viewBox="0 0 32 32">
<path d="M4.768 31c-1.271-1.272-2.497-2.501-3.741-3.746 0.070-0.074 0.147-0.157 0.226-0.237 2.227-2.228 4.456-4.455 6.68-6.689 0.117-0.118 0.218-0.278 0.267-0.436 1.041-3.422 2.065-6.848 3.111-10.27 0.505-1.653 1.124-3.258 2.188-4.651 1.677-2.193 3.873-3.515 6.616-3.888 4.893-0.665 9.62 2.696 10.639 7.5 0.932 4.399-1.157 8.748-5.263 10.869-1.539 0.794-3.199 1.259-4.845 1.755-2.847 0.857-5.694 1.717-8.539 2.584-0.168 0.050-0.334 0.159-0.458 0.284-2.22 2.209-4.433 4.424-6.646 6.641-0.082 0.082-0.15 0.179-0.236 0.284zM16.37 20.662c-2.507-0.874-4.17-2.55-5.013-5.132-0.49 1.62-0.953 3.142-1.405 4.668-0.025 0.083 0.022 0.225 0.086 0.292 0.418 0.436 0.87 0.84 1.269 1.293 0.237 0.268 0.448 0.295 0.776 0.191 1.424-0.454 2.858-0.878 4.286-1.313l0.001 0.001zM17.647 5.705c0.401 0.403 0.798 0.803 1.16 1.167 0.4-0.397 0.804-0.799 1.185-1.177-0.383-0.383-0.786-0.785-1.166-1.164-0.38 0.379-0.779 0.776-1.18 1.174l0.001-0.001zM23.85 4.552c-0.405 0.401-0.811 0.801-1.195 1.18 0.372 0.374 0.768 0.775 1.124 1.133 0.396-0.396 0.801-0.799 1.196-1.193-0.376-0.375-0.776-0.774-1.124-1.121zM17.516 8.208c-0.389-0.394-0.791-0.799-1.166-1.178-0.384 0.383-0.787 0.785-1.135 1.135 0.383 0.386 0.785 0.79 1.167 1.176 0.374-0.373 0.772-0.771 1.135-1.132h-0.001zM21.349 7.009c-0.413 0.408-0.816 0.808-1.164 1.152 0.387 0.388 0.789 0.791 1.173 1.177 0.369-0.372 0.768-0.77 1.157-1.16-0.386-0.386-0.784-0.785-1.166-1.169zM26.298 9.381c0.404-0.404 0.803-0.804 1.173-1.177-0.394-0.394-0.797-0.798-1.186-1.187-0.384 0.384-0.786 0.788-1.176 1.178 0.384 0.383 0.784 0.782 1.188 1.185v0.001zM20.015 10.691c-0.408-0.407-0.81-0.809-1.16-1.157-0.383 0.383-0.788 0.785-1.177 1.174 0.37 0.372 0.769 0.77 1.159 1.16 0.39-0.39 0.789-0.789 1.178-1.178zM23.832 9.502c-0.395 0.394-0.798 0.797-1.176 1.173 0.38 0.383 0.779 0.786 1.124 1.133 0.389-0.388 0.792-0.791 1.18-1.178-0.368-0.368-0.766-0.767-1.129-1.128v-0.001zM17.532 13.176c-0.395-0.395-0.798-0.799-1.187-1.188-0.384 0.386-0.788 0.79-1.146 1.15 0.388 0.388 0.792 0.792 1.187 1.187 0.375-0.375 0.774-0.775 1.146-1.149zM20.142 13.142c0.398 0.402 0.794 0.802 1.173 1.185 0.39-0.393 0.794-0.796 1.153-1.158-0.379-0.382-0.779-0.788-1.172-1.184-0.377 0.379-0.776 0.777-1.154 1.156v0.001zM25.115 13.135c0.393 0.396 0.794 0.803 1.177 1.191 0.389-0.39 0.791-0.795 1.146-1.151-0.386-0.388-0.789-0.792-1.179-1.184-0.375 0.374-0.774 0.772-1.145 1.144h0.001zM18.798 16.788c0.403-0.397 0.809-0.798 1.198-1.183-0.376-0.373-0.777-0.769-1.142-1.129-0.39 0.389-0.795 0.791-1.188 1.185 0.38 0.378 0.779 0.776 1.132 1.127v-0.001zM24.993 15.632c-0.402-0.399-0.802-0.796-1.166-1.158-0.391 0.39-0.796 0.794-1.174 1.17 0.382 0.381 0.784 0.784 1.163 1.161 0.38-0.379 0.778-0.776 1.178-1.174v0.001z"></path>
</symbol></defs><use xlink:href="#icon_FrenchOpenMen" fill="#FFFFFF"></use></svg>