<svg xmlns:xlink="http://www.w3.org/1999/xlink" xmlns="http://www.w3.org/2000/svg" class="s1yetyrx icon" width="34"  height="32" ><defs><symbol id="icon_Gift" viewBox="0 0 34 32">
<path d="M3.245 18.982v9.014c0 1.657 1.348 3.004 3.004 3.004h9.014v-12.018h-12.018z"></path>
<path d="M18.268 18.982v12.018h9.013c1.657 0 3.004-1.348 3.004-3.004v-9.014h-12.018z"></path>
<path d="M28.783 9.969h-4.678c0.682-0.342 1.307-0.787 1.855-1.318 0.844-0.846 1.317-1.993 1.317-3.188s-0.474-2.341-1.317-3.188c-1.704-1.699-4.667-1.701-6.373 0.002-2.458 2.459-2.79 7.088-2.82 7.607-0.003 0.029 0.012 0.054 0.012 0.084h-0.030c0-0.029 0.015-0.056 0.013-0.086-0.030-0.52-0.362-5.148-2.821-7.609-1.704-1.699-4.67-1.699-6.374 0.002-0.843 0.846-1.317 1.992-1.317 3.187s0.474 2.341 1.317 3.187c0.536 0.535 1.179 0.966 1.857 1.318h-4.678c-1.657 0-3.004 1.348-3.004 3.004v4.507h13.52v-6.009h3.005v6.009h13.52v-4.507c-0.001-0.796-0.318-1.56-0.881-2.123s-1.327-0.88-2.123-0.88zM9.695 6.526c-0.209-0.211-0.35-0.478-0.407-0.769s-0.027-0.592 0.086-0.866c0.113-0.274 0.305-0.508 0.551-0.673s0.535-0.254 0.832-0.256c0.403 0 0.78 0.156 1.064 0.439 0.886 0.886 1.403 2.476 1.68 3.802-1.323-0.276-2.925-0.796-3.805-1.677zM20.031 8.205c0.276-1.327 0.793-2.917 1.68-3.804 0.284-0.284 0.662-0.44 1.064-0.44s0.78 0.156 1.061 0.437c0.586 0.587 0.587 1.541 0 2.127-0.886 0.888-2.477 1.405-3.804 1.68z"></path>
</symbol></defs><use xlink:href="#icon_Gift" fill="#ffffff"></use></svg>