<svg xmlns:xlink="http://www.w3.org/1999/xlink" xmlns="http://www.w3.org/2000/svg" class="s1yetyrx icon" width="32"  height="32" ><defs><symbol id="icon_IceHockey" viewBox="0 0 32 32">
<path d="M16.008 4.49c2.583 0.071 5.121 0.379 7.581 1.195 1.742 0.578 3.378 1.358 4.743 2.618 0.827 0.763 1.455 1.658 1.707 2.777 0.311 1.375-0.044 2.6-0.85 3.721-0.663 0.921-1.538 1.607-2.501 2.18-1.897 1.127-3.968 1.762-6.128 2.146-1.876 0.333-3.766 0.451-5.664 0.369-2.953-0.127-5.827-0.646-8.514-1.939-1.354-0.651-2.6-1.461-3.52-2.689-1.435-1.917-1.338-4.173 0.245-5.988 0.9-1.032 2.018-1.768 3.233-2.357 2.031-0.986 4.187-1.535 6.422-1.774 1.080-0.115 2.164-0.174 3.247-0.258z"></path>
<path d="M1.847 16.323c0.46 0.415 0.874 0.834 1.332 1.196 1.274 1.008 2.712 1.72 4.237 2.263 1.642 0.586 3.333 0.955 5.061 1.17 1.466 0.183 2.935 0.253 4.409 0.205 2.906-0.093 5.744-0.564 8.449-1.662 1.797-0.73 3.449-1.696 4.815-3.234v0.317c0 1.077-0.016 2.156 0.004 3.233 0.024 1.311-0.453 2.419-1.296 3.395-0.877 1.015-1.979 1.732-3.168 2.31-2.036 0.99-4.203 1.525-6.446 1.794-1.614 0.194-3.232 0.254-4.852 0.152-2.792-0.175-5.504-0.699-8.042-1.928-1.396-0.677-2.671-1.524-3.591-2.811-0.6-0.838-0.922-1.767-0.915-2.808 0.009-1.188 0.002-2.376 0.002-3.591z"></path>
</symbol></defs><use xlink:href="#icon_IceHockey" fill="#FFFFFF"></use></svg>