<svg xmlns:xlink="http://www.w3.org/1999/xlink" xmlns="http://www.w3.org/2000/svg" class="s1yetyrx icon" width="32"  height="32" ><defs><symbol id="icon_LaLiga" viewBox="0 0 32 32">
<path d="M8.459 14.242c0 0.918 0.19 1.778 0.52 2.514l-5.709 2.141c-0.494-1.4-0.768-2.952-0.768-4.586 0-2.277 0.533-4.395 1.449-6.163l5.341 2.987c-0.521 0.849-0.833 1.93-0.833 3.108z"></path>
<path d="M9.66 20.712c0.722 0.568 1.515 0.95 2.298 1.145l-1.847 5.811c-1.406-0.478-2.796-1.222-4.080-2.232-1.789-1.407-3.125-3.136-3.949-4.949l5.65-2.352c0.345 0.934 1.002 1.848 1.927 2.576v-0z"></path>
<path d="M15.371 23.848c0.895-0.206 1.69-0.582 2.334-1.070l3.364 5.086c-1.254 0.794-2.706 1.409-4.298 1.774-2.219 0.509-4.403 0.463-6.331-0.034l1.717-5.874c0.944 0.318 2.068 0.381 3.215 0.117h0z"></path>
<path d="M13.423 8.824c0.794-0.46 1.633-0.727 2.436-0.81l-1.010-6.013c-1.459 0.275-2.94 0.816-4.353 1.635-1.97 1.141-3.535 2.665-4.606 4.344l5.263 3.123c0.473-0.876 1.252-1.689 2.271-2.279v0z"></path>
<path d="M20.203 9.809c0.866 0.305 1.613 0.769 2.198 1.326l3.916-4.674c-1.157-0.931-2.53-1.705-4.070-2.248-2.148-0.756-4.322-0.957-6.295-0.681l1.043 6.031c0.974-0.21 2.097-0.145 3.208 0.246l-0-0z"></path>
<path d="M21.166 21.955c-0.492 0.775-1.113 1.399-1.788 1.843l3.67 4.869c1.167-0.917 2.232-2.080 3.108-3.459 1.221-1.922 1.907-3.995 2.083-5.979l-6.11-0.344c-0.015 0.996-0.332 2.076-0.963 3.070l-0-0z"></path>
<path d="M23.572 15.535c0.272 0.877 0.346 1.754 0.248 2.555l6.087 0.353c0.056-1.484-0.141-3.047-0.626-4.608-0.675-2.174-1.812-4.039-3.211-5.457l-4.216 4.436c0.749 0.656 1.368 1.596 1.717 2.721z"></path>
<path d="M15.831 11.399c-2.578 0-4.669 2.143-4.669 4.787s2.090 4.787 4.669 4.787c2.579 0 4.669-2.143 4.669-4.787s-2.090-4.787-4.669-4.787zM14.626 17.722l2.264 0.009 0.003-0.008 0.765 1.347-0.753 0.74c-0.059 0.058-0.091 0.136-0.090 0.219l0.006 0.394c-0.318 0.078-0.649 0.119-0.99 0.119-0.427 0-0.84-0.065-1.23-0.185l0.055-0.194c0.030-0.105 0-0.218-0.078-0.295l-0.728-0.714 0.777-1.431-1.092 1.175-0.933-0.497c-0.073-0.038-0.158-0.046-0.236-0.020l-0.172 0.057c-0.355-0.602-0.573-1.299-0.607-2.045l0.206-0.060c0.079-0.023 0.145-0.077 0.183-0.15l0.485-0.938 1.547 0.342-0.004 0.003zM19.204 18.38c-0.092-0.060-0.209-0.065-0.305-0.014l-0.9 0.479-1.099-1.137 0.769-2.104-1.784-1.323-1.87 1.303-1.437-0.73 0.193-1.002c0.021-0.108-0.019-0.218-0.103-0.287l-0.14-0.116c0.44-0.558 1.012-1.002 1.667-1.283l0.206 0.278c0.049 0.066 0.123 0.109 0.204 0.119l1.049 0.129 0.232 1.589 0.173-1.617 1.006-0.167c0.108-0.018 0.198-0.093 0.234-0.196l0.063-0.18c0.697 0.276 1.306 0.735 1.77 1.32l-0.138 0.119c-0.083 0.071-0.12 0.183-0.097 0.29l0.213 0.998-1.437 0.766 1.559-0.378 0.504 0.928c0.039 0.072 0.106 0.125 0.186 0.146l0.157 0.042c-0.029 0.797-0.267 1.539-0.659 2.17l-0.215-0.141z"></path>
</symbol></defs><use xlink:href="#icon_LaLiga" fill="#FFFFFF"></use></svg>