<svg xmlns:xlink="http://www.w3.org/1999/xlink" xmlns="http://www.w3.org/2000/svg" class="s1yetyrx icon" width="32"  height="32" ><defs><symbol id="icon_LiveCasino" viewBox="0 0 32 32">
<path d="M6.85 24.1h2.43v-14.85c0-2.214 0.882-3.15 2.97-3.15h9.45v-2.25c0-0.9-0.45-1.35-1.35-1.35h-13.5c-0.9 0-1.35 0.45-1.35 1.35v18.9c0 0.9 0.45 1.35 1.35 1.35z"></path>
<path d="M23.909 19.701c-0.006 0.028-0.015 0.056-0.017 0.084-0.024 0.313-0.099 0.615-0.236 0.897-0.454 0.937-1.206 1.477-2.229 1.632-0.646 0.098-1.236-0.042-1.744-0.473-0.006-0.005-0.017-0.004-0.032-0.006 0 0.17 0.005 0.337-0.001 0.503-0.012 0.351 0.136 0.61 0.431 0.793 0.122 0.076 0.242 0.158 0.358 0.244 0.118 0.087 0.117 0.159 0.005 0.253h-2.907c-0.105-0.113-0.103-0.169 0.026-0.262 0.14-0.101 0.287-0.194 0.428-0.293 0.238-0.167 0.357-0.397 0.357-0.687 0-0.16 0.001-0.321 0-0.481 0-0.023-0.005-0.047-0.007-0.073-0.107 0.074-0.203 0.149-0.306 0.212-0.491 0.299-1.022 0.346-1.578 0.255-1.118-0.183-2.039-1.041-2.291-2.144-0.034-0.149-0.051-0.302-0.076-0.453v-0.308c0.006-0.025 0.014-0.049 0.017-0.074 0.066-0.728 0.368-1.343 0.904-1.836 0.261-0.241 0.548-0.454 0.818-0.686 1.014-0.872 1.943-1.828 2.83-2.826 0.072-0.081 0.175-0.133 0.264-0.198h0.154c0.091 0.068 0.197 0.122 0.27 0.205 1.080 1.215 2.224 2.363 3.497 3.378 0.497 0.396 0.822 0.91 0.975 1.528 0.041 0.167 0.060 0.34 0.090 0.509v0.308zM25.75 7.9h-13.5c-0.9 0-1.35 0.45-1.35 1.35v18.9c0 0.9 0.45 1.35 1.35 1.35h13.5c0.9 0 1.35-0.45 1.35-1.35v-18.9c0-0.9-0.45-1.35-1.35-1.35v0z"></path>
</symbol></defs><use xlink:href="#icon_LiveCasino" fill="#FFFFFF"></use></svg>