<svg xmlns:xlink="http://www.w3.org/1999/xlink" xmlns="http://www.w3.org/2000/svg" class="s1yetyrx icon" width="32"  height="32" ><defs><symbol id="icon_Support" viewBox="0 0 32 32">
<path d="M11.155 17.247c1.147 0 2.077 0.93 2.077 2.077v8.099c0 1.147-0.93 2.077-2.077 2.077h-2.178c-1.721 0-3.115-1.395-3.115-3.115v-6.022c0-1.721 1.395-3.115 3.115-3.115h2.178zM23.112 17.247c1.721 0 3.115 1.395 3.115 3.115v0 6.022c0 1.721-1.395 3.115-3.115 3.115v0h-2.178c-1.147 0-2.077-0.93-2.077-2.077v0-8.099c0-1.147 0.93-2.077 2.077-2.077v0zM16 2.5c8.19 0 14.853 6.518 15.053 14.634l0.005 0.376v6.131c0 0.846-0.688 1.532-1.537 1.532-0.796 0-1.45-0.603-1.529-1.375l-0.008-0.157v-6.131c0-6.598-5.366-11.946-11.985-11.946-6.507 0-11.802 5.169-11.98 11.612l-0.005 0.334v6.15c0 0.846-0.688 1.532-1.537 1.532-0.796 0-1.45-0.603-1.528-1.375l-0.008-0.157v-6.15c0-8.289 6.742-15.009 15.058-15.009z"></path>
</symbol></defs><use xlink:href="#icon_Support" fill="#3BC117"></use></svg>