<svg xmlns:xlink="http://www.w3.org/1999/xlink" xmlns="http://www.w3.org/2000/svg" class="s1yetyrx icon" width="32"  height="32" ><defs><symbol id="icon_LiveEvents" viewBox="0 0 32 32">
<path d="M28.79 13.56c0-1.76 0.006-3.519-0.003-5.278-0.006-1.265-1.061-2.414-2.319-2.487-0.885-0.051-1.775-0.024-2.663-0.033-0.098 0-0.195 0-0.311 0 0-0.209 0.002-0.377 0-0.545-0.006-0.363 0.006-0.729-0.027-1.090-0.060-0.649-0.572-1.105-1.222-1.123-0.791-0.022-1.345 0.366-1.427 1.061-0.056 0.468-0.030 0.944-0.040 1.418-0.002 0.088 0 0.177 0 0.261h-9.597c0-0.209 0.002-0.403 0-0.595-0.005-0.38 0.033-0.768-0.030-1.139-0.12-0.696-0.739-1.079-1.531-1.001-0.652 0.063-1.124 0.59-1.132 1.273-0.006 0.481-0.001 0.961-0.001 1.48-0.85 0-1.662-0.004-2.473 0.003-0.244 0.002-0.494 0.007-0.731 0.058-1.239 0.262-2.072 1.309-2.072 2.585-0.001 5.955 0.013 11.911-0.010 17.866-0.006 1.515 1.207 2.73 2.739 2.725 6.708-0.024 13.416-0.024 20.125 0 1.53 0.005 2.748-1.213 2.738-2.726-0.028-4.238-0.010-8.476-0.010-12.714zM21.552 18.077c-0.605 0.588-1.209 1.175-1.799 1.776-0.084 0.085-0.151 0.249-0.133 0.362 0.128 0.851 0.27 1.701 0.425 2.548 0.081 0.444-0.037 0.811-0.386 1.082-0.354 0.273-0.75 0.286-1.146 0.080-0.755-0.391-1.512-0.782-2.261-1.185-0.182-0.099-0.323-0.099-0.505 0-0.713 0.385-1.437 0.749-2.151 1.131-0.417 0.223-0.832 0.286-1.23-0.006-0.39-0.287-0.493-0.682-0.403-1.159 0.156-0.815 0.288-1.636 0.409-2.457 0.018-0.124-0.039-0.302-0.126-0.391-0.575-0.588-1.164-1.163-1.758-1.732-0.351-0.335-0.539-0.724-0.382-1.2 0.162-0.493 0.562-0.674 1.053-0.738 0.823-0.107 1.645-0.233 2.464-0.371 0.101-0.017 0.213-0.138 0.265-0.24 0.384-0.747 0.755-1.502 1.128-2.254 0.205-0.414 0.513-0.671 1.007-0.673 0.456 0.014 0.755 0.268 0.954 0.672 0.367 0.744 0.742 1.485 1.105 2.231 0.087 0.18 0.192 0.264 0.407 0.291 0.814 0.101 1.624 0.234 2.436 0.354 0.455 0.067 0.817 0.271 0.965 0.726 0.146 0.449-0.007 0.832-0.341 1.155l0.002-0.001z"></path>
</symbol></defs><use xlink:href="#icon_LiveEvents" fill="#FFFFFF"></use></svg>