<svg xmlns:xlink="http://www.w3.org/1999/xlink" xmlns="http://www.w3.org/2000/svg" class="s1yetyrx icon" width="32"  height="32" ><defs><symbol id="icon_Lottery" viewBox="0 0 32 32">
<path d="M30.302 9.803c0.042 0.087 0.088 0.194 0.138 0.319l0.162 0.434 0.186 0.548c0.244 0.711 0.067 1.537-0.4 2.258-1.666 2.573-4.084 5.548-6.687 8.357-3.211 3.464-6.398 6.12-9.486 7.943-0.93 0.549-2.154 0.539-3.092 0.026l-0.228-0.139-1.073-0.74-0.888-0.626c-0.366-0.26-0.457-0.773-0.202-1.147 0.226-0.332 0.648-0.442 0.996-0.28l0.126 0.073 1.129 0.794 0.801 0.55c0.454 0.305 1.154 0.339 1.624 0.061 5.037-2.974 10.769-8.648 15.734-15.771 0.072-0.103 0.122-0.343 0.126-0.532l-0.006-0.129-0.030-0.132-0.26-0.703c-0.11-0.456-0.063-0.773 0.277-1.133 0.416-0.441 0.843-0.472 1.054-0.033zM8.884 21.255l0.268 0.171 0.239 0.172c0.358 0.271 0.432 0.788 0.166 1.153s-0.771 0.441-1.128 0.17c-1.289-0.978-2.588-0.838-4.118 0.467-0.197 0.168-0.457 0.228-0.704 0.168l-0.146-0.050-0.127-0.073-2.059-1.46c-0.366-0.26-0.457-0.773-0.202-1.147 0.195-0.287 0.542-0.412 0.861-0.328l0.141 0.052 0.12 0.070 1.529 1.149 0.072-0.055c1.738-1.261 3.477-1.421 5.089-0.458zM18.843 0.734l1.709 1.134c-0.073 0.083-0.141 0.173-0.204 0.268-0.997 1.495-0.889 3.503 0.963 4.849s4.127 1.080 5.249-0.278c0.153-0.185 0.27-0.391 0.354-0.612l1.803 1.198c0.539 0.361 0.683 1.090 0.321 1.629-0.008 0.012-0.017 0.024-0.025 0.036-2.879 3.938-5.732 7.334-8.561 10.186-2.745 2.769-5.402 4.943-7.969 6.524-0.522 0.323-1.19 0.287-1.675-0.090l-1.677-1.315c0.145-0.095 0.272-0.199 0.377-0.311 0.941-0.998 1.136-3.23-0.774-4.717s-4.027-1.194-5.382-0.207c-0.158 0.115-0.288 0.25-0.391 0.402l-1.665-1.303c-0.383-0.3-0.449-0.854-0.148-1.237 0.056-0.072 0.124-0.134 0.2-0.185 3.287-2.21 6.218-4.602 8.793-7.177s4.937-5.404 7.087-8.488c0.365-0.525 1.084-0.661 1.616-0.306zM10.964 16.67c-0.51 0.156-0.792 0.713-0.63 1.243s0.707 0.834 1.218 0.678c0.51-0.156 0.792-0.713 0.63-1.243s-0.707-0.834-1.218-0.678zM16.937 9.876l-0.097 0.051-1.802 1.236-2.093-0.789c-0.105-0.040-0.221-0.041-0.327-0.003-0.212 0.076-0.337 0.286-0.313 0.501l0.025 0.107 0.728 2.044-1.31 1.678c-0.062 0.079-0.097 0.175-0.1 0.276-0.008 0.225 0.142 0.419 0.35 0.476l0.109 0.016 2.277 0.082 1.332 1.862c0.060 0.085 0.147 0.147 0.246 0.178 0.215 0.067 0.442-0.027 0.551-0.213l0.044-0.1 0.627-2.023 2.074-0.53c0.107-0.027 0.201-0.091 0.266-0.18 0.133-0.182 0.118-0.426-0.023-0.59l-0.081-0.074-1.831-1.337-0.002-2.222c0-0.096-0.029-0.189-0.083-0.268-0.127-0.186-0.363-0.253-0.564-0.175zM19.365 8.275c-0.51 0.156-0.792 0.713-0.63 1.243s0.707 0.834 1.218 0.678c0.51-0.156 0.792-0.713 0.63-1.243s-0.707-0.834-1.218-0.678z"></path>
</symbol></defs><use xlink:href="#icon_Lottery" fill="#FFFFFF"></use></svg>