<svg xmlns:xlink="http://www.w3.org/1999/xlink" xmlns="http://www.w3.org/2000/svg" class="s1yetyrx icon" width="32"  height="32" ><defs><symbol id="icon_PicksForYou" viewBox="0 0 32 32">
<path d="M20.508 14.633c0.832 0 1.664 0.009 2.495-0.002 2.229-0.028 3.977-0.981 5.142-2.866 0.858-1.387 1.053-2.935 0.605-4.515-0.826-2.912-3.595-4.638-6.575-4.143-2.7 0.449-4.726 2.738-4.812 5.54-0.058 1.897-0.009 3.796-0.020 5.695-0.002 0.253 0.090 0.299 0.316 0.296 0.949-0.011 1.898-0.005 2.847-0.005z"></path>
<path d="M3.004 8.236c0.146-0.386 0.162-0.802 0.3-1.192 0.796-2.257 2.377-3.64 4.728-3.964 3.318-0.457 5.952 1.768 6.5 4.673 0.077 0.408 0.117 0.82 0.117 1.237 0 1.771-0.005 3.541 0.008 5.311 0.002 0.268-0.075 0.339-0.34 0.338-1.834-0.011-3.669 0-5.503-0.008-2.814-0.012-5.217-2.056-5.697-4.824-0.024-0.139 0.004-0.301-0.112-0.419v-1.152z"></path>
<path d="M20.508 14.633c-0.949 0-1.898-0.006-2.847 0.005-0.227 0.002-0.318-0.043-0.316-0.296 0.012-1.898-0.038-3.798 0.020-5.695 0.085-2.802 2.112-5.091 4.812-5.54 2.98-0.495 5.748 1.23 6.575 4.143 0.448 1.58 0.253 3.128-0.605 4.515-1.165 1.885-2.913 2.838-5.142 2.866-0.832 0.010-1.664 0.002-2.495 0.002z"></path>
<path d="M3.004 22.513c0.149-0.208 0.129-0.463 0.18-0.695 0.471-2.153 2.362-3.975 4.535-4.359 0.452-0.080 0.906-0.121 1.366-0.12 1.739 0.004 3.478 0.006 5.216-0.004 0.254-0.001 0.348 0.049 0.347 0.328-0.012 1.814 0.004 3.627-0.008 5.441-0.008 1.152-0.292 2.239-0.942 3.198-0.985 1.453-2.337 2.357-4.095 2.61-0.069 0.010-0.154-0.019-0.198 0.067h-1.088c-0.168-0.108-0.366-0.078-0.55-0.119-2.322-0.519-3.842-1.899-4.535-4.184-0.095-0.312-0.089-0.647-0.229-0.947v-1.216z"></path>
<path d="M22.53 28.98c-0.115-0.12-0.277-0.089-0.416-0.115-2.548-0.48-4.452-2.551-4.715-5.123-0.032-0.309-0.043-0.616-0.043-0.925 0-1.696 0.009-3.392-0.004-5.087-0.002-0.297 0.056-0.399 0.378-0.396 1.77 0.017 3.541 0.005 5.311 0.009 3.087 0.007 5.481 2.106 5.893 5.164 0.007 0.053 0.006 0.107 0.063 0.136v1.088c-0.083 0.073-0.111 0.163-0.123 0.276-0.024 0.229-0.056 0.46-0.115 0.682-0.323 1.207-1.008 2.163-1.965 2.965-0.715 0.6-1.518 0.958-2.405 1.179-0.255 0.063-0.524 0.045-0.77 0.149h-1.088z"></path>
</symbol></defs><use xlink:href="#icon_PicksForYou" fill="#FFFFFF"></use></svg>