<svg xmlns:xlink="http://www.w3.org/1999/xlink" xmlns="http://www.w3.org/2000/svg" class="s1yetyrx icon" width="32"  height="32" ><defs><symbol id="icon_PremierLeague" viewBox="0 0 32 32">
<path d="M8.76 3.255c1.338 0.63 2.228 1.399 2.383 1.52-0.060-0.354-0.337-2.029-0.509-3.057 0.768 0.535 2.625 1.813 3.212 2.228 0.233-0.751 1.105-3.212 1.105-3.212s1.537 2.47 1.779 2.884c0.337-0.319 2.15-2.366 2.625-2.884 0.095 1.166 0.181 2.858 0.216 3.1 0.095-0.121 0.812-1.105 1.969-2.029-0.509 1.010-0.751 2.383-0.872 3.514-1.166-0.337-2.383-0.509-3.627-0.509-2.409 0-4.697 0.63-6.666 1.753-0.337-1.097-0.872-2.444-1.615-3.307zM27.264 24.436l-1.071-1.183c-0.294 3.178-1.874 5.898-4.732 7.789l-0.458-1.718c-2.444 1.753-6.606 2.884-10.198 0.872 0.458-2.271 0.829-4.576 0-7.34-1.995 3.057-3.747 4.283-3.747 4.283-1.338-2.271-1.226-6.787-0.829-8.125l-2.228 0.691c0-1.52 1.105-4.732 2.685-6.545l-1.364-0.216c0.95-1.934 2.349-3.592 4.101-4.87-0.535 0.872-0.535 2.884 0.984 3.653-0.648-1.123-0.708-2.521-0.060-3.273 0.691-0.751 1.813-0.475 2.521 0.095-0.216-0.63-0.872-1.416-1.779-1.477 1.779-0.924 3.842-1.416 5.975-1.416 0.415 0 0.812 0.043 1.183 0.060 0.63 0.233 1.537 1.123 1.969 1.692 0 0 0.043-0.648-0.337-1.416 2.331 0.57 3.454 1.52 3.903 1.969 0.095 1.010 0.397 1.597 0.812 2.564-0.751-0.829-2.642-2.21-3.575-2.521 0 0-0.095 0.872-0.397 1.278-1.813-1.304-2.685-1.641-2.685-1.641-2.012 0.199-3.255 0.984-3.963 1.58l0.596 0.509c-1.183 0.354-1.969 1.399-1.969 1.399 0 0.043 1.062 0.181 1.062 0.181s-0.121 1.243 1.459 2.029c1.338 0.648 3.238-0.155 5.051 0.57-1.183-1.364-1.995-1.995-1.995-1.995s-0.475-0.095-0.812-0.095c-0.414 0-1.045 0.095-1.692-0.181-0.337-0.121-0.708-0.354-0.984-0.535 0 0 0.829-0.872 2.055-1.045 0 0 1.105 0.294 1.969 0.95 0.57-0.57 1.183-0.535 1.183-0.535s-0.596 0.57-0.414 1.226c0.872 0.769 1.813 1.874 1.813 1.874 0.95-0.535 3.039-0.415 3.471 0.095-0.535-0.708-1.338-1.278-1.934-1.779-0.060-0.276-0.751-1.183-0.829-1.278 0 0 0.63 0.216 1.183 0.691 0.155-0.233 0.475-0.475 0.872-0.57 0.414 0.354 0.509 0.889 0.475 0.984-0.181 0.233-0.397 0.337-0.397 0.337l1.027 1.097 0.095-0.812c2.357 3.342 3.635 7.227 2.003 12.097zM22.843 17.235v-1.718c0 0-0.768-0.233-1.597-0.889-1.658 0.233-3.652 1.917-3.652 1.917s0.691 1.278 1.416 2.685c1.304 0.138 3.238-1.477 3.834-1.995zM24.501 20.352c0 0-0.121-0.708-0.708-1.364l-1.278 0.043c0 0-1.753 1.477-2.798 1.52 0 0 0.596 1.105 0.889 1.658 0.596-0.121 1.597-0.596 2.029-1.062 0 0 0.276 0.889 0.216 1.934 0.578-0.38 1.39-1.287 1.649-2.729zM25.028 14.67c-0.648 0.535-1.183 0.872-1.183 0.872v1.718c0.475 0.509 0.924 0.95 1.278 1.718 0.656-1.148 0.501-2.867-0.095-4.309z"></path>
</symbol></defs><use xlink:href="#icon_PremierLeague" fill="#FFFFFF"></use></svg>