<svg xmlns:xlink="http://www.w3.org/1999/xlink" xmlns="http://www.w3.org/2000/svg" class="s1yetyrx icon" width="32"  height="32" ><defs><symbol id="icon_Promotion" viewBox="0 0 32 32">
<path d="M25.2 6.234l4.159 3.775c0.558 0.506 0.877 1.225 0.877 1.978l0.015 14.451c0.001 0.985-0.797 1.785-1.782 1.786h-8.902c-0.984 0-1.783-0.797-1.784-1.782l-0.015-14.451c-0.001-0.755 0.318-1.476 0.877-1.984l4.157-3.773c0.68-0.617 1.718-0.617 2.398 0zM24.030 9.952c-0.862 0-1.561 0.753-1.561 1.683s0.699 1.683 1.561 1.683c0.862 0 1.561-0.753 1.561-1.683s-0.699-1.683-1.561-1.683z"></path>
<path d="M19.461 7.381l-1.602 1.454c-0.907 0.823-1.43 2.037-1.429 3.315l0.015 14.154c0 0.162-0.004 0.262 0.032 0.477s-0.046 0.236-0.202 0.191c-0.693-0.198-1.733-0.499-3.12-0.902-0.951-0.275-1.515-1.328-1.262-2.353l3.384-13.676c0.204-0.823 0.735-1.508 1.45-1.869l2.434-1.229c0.132-0.067 0.293-0.014 0.359 0.118 0.054 0.107 0.030 0.238-0.059 0.319z"></path>
<path d="M18.043 6.123l-1.923 0.99c-1.089 0.56-1.908 1.597-2.238 2.832l-3.649 13.676c-0.028 0.106-0.057 0.283-0.060 0.43s-0.018 0.331-0.427 0.081c-0.584-0.356-1.46-0.886-2.631-1.588-0.847-0.511-1.12-1.675-0.61-2.6l6.808-12.334c0.41-0.743 1.1-1.266 1.885-1.43l2.669-0.557c0.145-0.030 0.286 0.063 0.317 0.207 0.025 0.118-0.032 0.237-0.139 0.293z"></path>
<path d="M17.046 4.462l-2.114 0.458c-1.197 0.259-2.257 1.049-2.895 2.157l-7.064 12.265c-0.067 0.116-0.127 0.235-0.18 0.355-0.047 0.107-0.055 0.355-0.335 0.105-0.523-0.467-1.262-1.236-2.219-2.307-0.686-0.713-0.648-1.908 0.084-2.669l9.768-10.152c0.588-0.611 1.39-0.938 2.191-0.893l2.722 0.153c0.148 0.008 0.26 0.135 0.252 0.282-0.007 0.12-0.093 0.221-0.21 0.246z"></path>
</symbol></defs><use xlink:href="#icon_Promotion" fill="#FFFFFF"></use></svg>