<svg xmlns:xlink="http://www.w3.org/1999/xlink" xmlns="http://www.w3.org/2000/svg" class="s1yetyrx icon" width="32"  height="32" ><defs><symbol id="icon_ProvablyFair" viewBox="0 0 32 32">
<path d="M18.347 13.707h9.388c0.518 0 0.939 0.42 0.939 0.939v0.147c0 0.518-0.42 0.939-0.939 0.939h-9.388c-0.518 0-0.939-0.42-0.939-0.939v-0.147c0-0.518 0.42-0.939 0.939-0.939zM18.347 4.597h9.388c0.518 0 0.939 0.42 0.939 0.939v0.147c0 0.518-0.42 0.939-0.939 0.939h-9.388c-0.518 0-0.939-0.42-0.939-0.939v-0.147c0-0.518 0.42-0.939 0.939-0.939zM4.265 13.707h9.388c0.518 0 0.939 0.42 0.939 0.939v0.147c0 0.518-0.42 0.939-0.939 0.939h-9.388c-0.518 0-0.939-0.42-0.939-0.939v-0.147c0-0.518 0.42-0.939 0.939-0.939zM18.347 10.671h9.388c0.518 0 0.939 0.42 0.939 0.939v0.147c0 0.518-0.42 0.939-0.939 0.939h-9.388c-0.518 0-0.939-0.42-0.939-0.939v-0.147c0-0.518 0.42-0.939 0.939-0.939zM4.265 10.671h9.388c0.518 0 0.939 0.42 0.939 0.939v0.147c0 0.518-0.42 0.939-0.939 0.939h-9.388c-0.518 0-0.939-0.42-0.939-0.939v-0.147c0-0.518 0.42-0.939 0.939-0.939zM18.347 7.634h9.388c0.518 0 0.939 0.42 0.939 0.939v0.147c0 0.518-0.42 0.939-0.939 0.939h-9.388c-0.518 0-0.939-0.42-0.939-0.939v-0.147c0-0.518 0.42-0.939 0.939-0.939zM4.265 7.634h9.388c0.518 0 0.939 0.42 0.939 0.939v0.147c0 0.518-0.42 0.939-0.939 0.939h-9.388c-0.518 0-0.939-0.42-0.939-0.939v-0.147c0-0.518 0.42-0.939 0.939-0.939zM2.388 17.756h27.225c0 1.118-0.906 2.024-2.024 2.024h-23.176c-1.118 0-2.024-0.906-2.024-2.024v0 0zM16.733 20.696l4.148 5.181c0.324 0.405 0.259 0.996-0.146 1.32-0.166 0.133-0.373 0.206-0.587 0.206h-8.296c-0.518 0-0.939-0.42-0.939-0.939 0-0.213 0.073-0.42 0.206-0.587l4.148-5.181c0.324-0.405 0.915-0.47 1.32-0.146 0.054 0.043 0.103 0.092 0.146 0.146z"></path>
</symbol></defs><use xlink:href="#icon_ProvablyFair" fill="#FFFFFF"></use></svg>