<svg xmlns:xlink="http://www.w3.org/1999/xlink" xmlns="http://www.w3.org/2000/svg" class="s1yetyrx icon" width="32"  height="32" ><defs><symbol id="icon_Recent" viewBox="0 0 32 32">
<path d="M23.856 19.418l-0.466 0.022c-0.060 0.003-0.118 0.006-0.174 0.010-0.124 0.007-0.253 0.015-0.385 0.016-1.56 0.001-3.119 0.002-4.679 0.002-1.080 0-2.16 0-3.24-0.001-1.581-0.001-2.318-0.742-2.318-2.33-0.001-2.253 0-4.505 0-6.758v-3.772h3.836v8.898h7.426v3.913zM15.908 2.005c-7.677 0.014-13.922 6.317-13.903 14.034 0.019 7.751 6.3 13.977 14.080 13.957 7.653-0.020 13.936-6.332 13.919-13.983-0.017-7.774-6.305-14.022-14.096-14.008v0z"></path>
</symbol></defs><use xlink:href="#icon_Recent" fill="#FFFFFF"></use></svg>