<svg xmlns:xlink="http://www.w3.org/1999/xlink" xmlns="http://www.w3.org/2000/svg" class="s1yetyrx icon game-icon-svg" width="32"  height="32" ><defs><symbol id="icon_HashDice" viewBox="0 0 32 32">
<path d="M22.272 4.641c1.338 0 2.533 1.644 3.314 4.216l0.010-0.001 0.124 0.476c0.988 4.037 0.92 9.719-0.424 14.673h-0.001c-0.772 2.072-1.842 3.354-3.024 3.354l-0.072-0.005 0.001 0.005-12.523-0.008c-1.105-0.111-2.102-1.343-2.836-3.282l-0.011-0.001c-1.067-4.961-1.123-10.855-0.343-14.924l0.104-0.507h0.005c0.767-2.4 1.903-3.939 3.174-3.994v-0.002h12.501zM6.048 8.637c-0.751 2.526-1.097 5.143-1.036 7.851 0.056 2.515 0.44 4.918 1.152 7.209l0.119 0.369h-0.713c-1.063 0-1.876-1.596-2.31-3.873-1.127-0.578-1.931-2.090-1.931-3.864 0-1.75 0.782-3.244 1.884-3.84 0.421-2.304 1.255-3.852 2.358-3.852h0.478zM26.554 8.858c1.033 0.13 1.925 1.553 2.408 3.738 1.010 0.652 1.709 2.079 1.709 3.733 0 1.628-0.677 3.036-1.659 3.703-0.445 2.19-1.292 3.668-2.289 3.929l-0.168 0.032-0.002 0.011-0.756 0.001 0.176-0.449c0.781-2.109 1.222-4.404 1.322-6.886 0.109-2.714-0.289-5.317-1.195-7.811h0.453zM13.566 11.508l-0.346 0.132-0.51 0.23c-0.141 0.028-0.225-0.053-0.254-0.243s-0.156-0.289-0.381-0.297c-0.424 0-0.774 0.020-1.050 0.060-0.237 0.034-0.359 0.149-0.368 0.345l0.005 0.105-0.114 3.373c-0.014 0.136 0 0.237 0.043 0.304 0.029 0.045 0.070 0.074 0.124 0.089l0.091 0.010 1.316-0.027c0.076 0.024 0.142 0.012 0.2-0.035 0.038-0.031 0.072-0.079 0.103-0.141l0.042-0.106 0.174-0.299c0.16-0.279 0.372-0.473 0.636-0.583 0.22-0.091 0.518-0.106 0.895-0.046l0.236 0.046 1.908 0.546c0.487 0.077 0.97 0.077 1.449 0s0.924-0.236 1.337-0.475c-0.144 0.172-0.354 0.367-0.63 0.584s-0.62 0.456-1.030 0.718c-0.258 0.128-0.527 0.277-0.807 0.447s-0.57 0.361-0.871 0.572c-0.317 0.242-0.592 0.488-0.825 0.739s-0.423 0.505-0.571 0.763c-0.193 0.304-0.345 0.657-0.454 1.057s-0.176 0.849-0.2 1.346c-0.017 0.131 0.003 0.229 0.059 0.293 0.042 0.048 0.104 0.076 0.187 0.086l0.090 0.003 4.62 0.009c0.21 0.021 0.356 0.012 0.438-0.026 0.062-0.028 0.088-0.074 0.078-0.135l-0.022-0.067-0.079-0.428c-0.036-0.29-0.052-0.614-0.047-0.972s0.029-0.75 0.074-1.175c0.049-0.369 0.119-0.73 0.209-1.082s0.2-0.695 0.33-1.030c0.133-0.366 0.282-0.727 0.447-1.082s0.346-0.704 0.542-1.048c0.112-0.23 0.273-0.5 0.483-0.809s0.469-0.657 0.777-1.044c0.071-0.073 0.107-0.138 0.107-0.194 0-0.038-0.016-0.072-0.047-0.103l-0.059-0.043-0.279-0.129-0.574-0.355c-0.079-0.054-0.147-0.074-0.206-0.062s-0.108 0.057-0.147 0.135c-0.070 0.093-0.162 0.17-0.277 0.229s-0.252 0.101-0.412 0.126c-0.216 0.036-0.432 0.054-0.648 0.056s-0.433-0.014-0.65-0.047c-0.993-0.193-1.924-0.369-2.791-0.528-0.759-0.139-1.541-0.069-2.346 0.208z"></path>
</symbol></defs><use xlink:href="#icon_HashDice" fill="#FFFFFF"></use></svg>