<svg xmlns:xlink="http://www.w3.org/1999/xlink" xmlns="http://www.w3.org/2000/svg" class="s1yetyrx icon" width="32"  height="32" ><defs><symbol id="icon_Soccer" viewBox="0 0 32 32">
<path d="M16 29.993c-0.701-0.090-1.396-0.171-2.087-0.277-0.079-0.012-0.17-0.147-0.202-0.243-0.537-1.63-1.063-3.262-1.593-4.894-0.12-0.371-0.255-0.738-0.359-1.114-0.028-0.103-0.007-0.255 0.055-0.342 0.493-0.7 0.995-1.392 1.508-2.078 0.063-0.085 0.199-0.164 0.302-0.164 1.586-0.010 3.172-0.010 4.756 0 0.098 0 0.229 0.067 0.287 0.145 0.517 0.693 1.025 1.393 1.522 2.101 0.060 0.085 0.084 0.242 0.051 0.343-0.645 2.014-1.303 4.025-1.954 6.038-0.048 0.148-0.119 0.215-0.282 0.233-0.668 0.075-1.334 0.168-2.004 0.255v-0.002z"></path>
<path d="M15.18 9c0 0.428 0.009 0.856-0.007 1.284-0.003 0.099-0.065 0.228-0.142 0.285-1.268 0.931-2.542 1.856-3.822 2.772-0.092 0.066-0.257 0.098-0.365 0.066-0.824-0.252-1.643-0.52-2.459-0.797-0.092-0.032-0.195-0.136-0.226-0.228-0.667-2.025-1.327-4.052-1.978-6.082-0.027-0.085 0.015-0.237 0.080-0.301 0.978-0.965 2.083-1.758 3.304-2.386 0.073-0.038 0.216-0.027 0.283 0.021 1.741 1.255 3.479 2.517 5.211 3.785 0.069 0.050 0.112 0.18 0.114 0.273 0.012 0.437 0.005 0.874 0.005 1.311h0.001z"></path>
<path d="M16.821 8.977c0-0.437-0.008-0.874 0.007-1.311 0.003-0.090 0.063-0.209 0.134-0.262 1.717-1.257 3.442-2.506 5.161-3.761 0.117-0.085 0.204-0.105 0.34-0.033 1.196 0.637 2.285 1.419 3.264 2.357 0.126 0.122 0.135 0.222 0.082 0.381-0.652 1.992-1.298 3.985-1.937 5.982-0.057 0.176-0.149 0.258-0.325 0.313-0.78 0.241-1.556 0.495-2.329 0.756-0.172 0.058-0.297 0.049-0.449-0.063-1.246-0.916-2.498-1.823-3.753-2.726-0.14-0.101-0.204-0.199-0.197-0.377 0.014-0.418 0.004-0.838 0.004-1.256v-0.001z"></path>
<path d="M25.022 22.306c-1.048 0-2.095-0.006-3.143 0.004-0.187 0.002-0.299-0.061-0.403-0.208-0.481-0.675-0.967-1.345-1.46-2.011-0.096-0.13-0.115-0.243-0.065-0.396 0.489-1.483 0.968-2.968 1.462-4.45 0.036-0.107 0.149-0.231 0.253-0.266 0.807-0.275 1.62-0.537 2.436-0.785 0.108-0.033 0.276-0.011 0.366 0.054 1.706 1.229 3.403 2.47 5.107 3.699 0.138 0.1 0.18 0.195 0.151 0.358-0.235 1.341-0.65 2.624-1.252 3.847-0.076 0.153-0.181 0.148-0.31 0.148-1.048-0.001-2.095 0-3.143 0 0 0.001 0 0.002 0 0.003l0.001 0.002z"></path>
<path d="M6.966 22.303c-1.038 0-2.077-0.004-3.116 0.004-0.176 0.001-0.275-0.044-0.356-0.211-0.575-1.185-0.971-2.426-1.212-3.718-0.036-0.195-0.007-0.323 0.174-0.453 1.693-1.216 3.374-2.447 5.066-3.663 0.098-0.070 0.275-0.098 0.389-0.063 0.807 0.245 1.611 0.506 2.409 0.778 0.106 0.036 0.227 0.152 0.262 0.257 0.497 1.489 0.983 2.982 1.46 4.479 0.034 0.106 0.006 0.271-0.059 0.363-0.486 0.692-0.993 1.371-1.484 2.060-0.096 0.136-0.205 0.176-0.365 0.175-1.057-0.007-2.114-0.003-3.17-0.003 0-0.001 0-0.002 0-0.003h0.002z"></path>
<path d="M18.378 19.225h-4.763c-0.155-0.482-0.314-0.97-0.473-1.46-0.308-0.95-0.61-1.901-0.93-2.846-0.059-0.175-0.019-0.258 0.119-0.358 1.218-0.877 2.431-1.762 3.669-2.66 0.509 0.369 1.023 0.74 1.536 1.113 0.714 0.518 1.427 1.039 2.143 1.555 0.115 0.083 0.175 0.151 0.123 0.31-0.468 1.413-0.925 2.829-1.388 4.245-0.011 0.033-0.024 0.065-0.037 0.102z"></path>
<path d="M16.002 6.065c-1.499-1.089-2.984-2.167-4.473-3.248 1.501-1.078 7.177-1.085 8.955-0.009-1.492 1.083-2.976 2.162-4.482 3.257z"></path>
<path d="M2.001 16.167c-0.010-3.189 0.972-5.999 2.857-8.563 0.044 0.115 0.077 0.191 0.103 0.269 0.521 1.597 1.040 3.193 1.562 4.79 0.043 0.131 0.084 0.235-0.072 0.347-1.439 1.023-2.871 2.056-4.306 3.085-0.028 0.020-0.062 0.032-0.143 0.071z"></path>
<path d="M29.999 16.195c-1.568-1.126-3.075-2.208-4.594-3.299 0.571-1.757 1.139-3.505 1.725-5.308 1.895 2.571 2.878 5.384 2.869 8.607z"></path>
<path d="M27.369 23.957c-1.221 2.125-5.14 4.975-7.26 5.285 0.018-0.073 0.030-0.14 0.050-0.205 0.527-1.623 1.057-3.245 1.58-4.869 0.047-0.145 0.096-0.227 0.275-0.226 1.74 0.007 3.48 0.002 5.221 0.002 0.035 0 0.069 0.007 0.134 0.013v-0.001z"></path>
<path d="M4.591 23.942c0.847 0 1.626 0 2.406 0 0.984 0 1.968 0.004 2.951 0.001 0.149 0 0.251 0.015 0.306 0.187 0.538 1.677 1.084 3.35 1.627 5.026 0.008 0.023 0 0.050 0 0.114-3.012-0.969-5.413-2.73-7.291-5.328h0.001z"></path>
</symbol></defs><use xlink:href="#icon_Soccer" fill="#FFFFFF"></use></svg>