<svg xmlns:xlink="http://www.w3.org/1999/xlink" xmlns="http://www.w3.org/2000/svg" class="s1yetyrx icon" width="32"  height="32" ><defs><symbol id="icon_NewReleases" viewBox="0 0 32 32">
<path d="M29.263 3.278c1.823 2.253-0.98 8.75-3.532 11.778-0.85 1.008-2.129 2.234-3.837 3.681 0.327 0.265-0.47 5.122-1.357 6.177-0.927 1.139-2.205 2.188-3.672 3.373-0.28 0.227-0.66 0.013-0.818-0.265-0.234-0.408-0.868-3.715-0.663-4.282-2.891-1.257-4.998-2.754-6.317-4.494s-2.268-4.002-2.841-6.787c-0.709-0.025-3.616-1.671-3.936-1.988-0.227-0.227-0.336-0.647-0.044-0.862 1.522-1.114 2.866-2.072 4.207-2.676 1.135-0.529 5.419-0.124 6.166 0.179l0.077 0.039 0.505-0.376c1.489-1.099 2.749-1.941 3.783-2.521 3.563-2.004 10.456-3.23 12.279-0.977zM6.038 17.386l0.019 0.056c0.181 0.527 1.69 4.648 4.994 5.748v0l-6.092 1.1c-0.834 0.004-1.445-0.782-1.233-1.589v0l2.312-5.314zM16.059 7.532c-1.102 2.869 0.333 6.087 3.199 7.188 2.869 1.102 6.087-0.333 7.188-3.199 1.102-2.869-0.333-6.087-3.199-7.188-2.869-1.102-6.087 0.333-7.188 3.199zM22.591 5.979c1.914 0.734 2.869 2.879 2.135 4.792s-2.878 2.869-4.792 2.135c-1.914-0.734-2.869-2.878-2.135-4.792s2.878-2.869 4.792-2.135z"></path>
</symbol></defs><use xlink:href="#icon_NewReleases" fill="#FFFFFF"></use></svg>