<svg xmlns:xlink="http://www.w3.org/1999/xlink" xmlns="http://www.w3.org/2000/svg" class="s1yetyrx icon" width="32"  height="32" ><defs><symbol id="icon_Sports" viewBox="0 0 32 32">
<path d="M17.924 25.305c0.343 0 0.663 0.175 0.848 0.463 0.42 0.653 0.738 1.107 0.956 1.36s0.425 0.471 0.611 0.659l0.261 0.26c0.364 0.359 0.599 0.588 0.599 0.772 0 0.749-1.259 1.143-3.778 1.181v0c-0.191 0-0.341-0.15-0.341-0.336v0-4.023c0-0.186 0.15-0.336 0.336-0.336v0zM14.584 25.305c0.186 0 0.336 0.15 0.336 0.336v4.023c0 0.186-0.15 0.336-0.336 0.336h-0.005c-2.519-0.038-3.778-0.431-3.778-1.181 0-0.184 0.234-0.412 0.599-0.772l0.261-0.26c0.185-0.188 0.392-0.405 0.611-0.659s0.537-0.707 0.956-1.36c0.185-0.289 0.505-0.463 0.848-0.463h0.508zM28.682 22.926c-0.36 1.104-2.68 4.58-5.019 4.414s-3.324-2.029-2.832-2.624c0.492-0.595 3.064-0.159 5.296-1.578s2.916-1.317 2.556-0.213zM3.318 22.926c-0.36-1.104 0.324-1.205 2.556 0.213s4.804 0.982 5.296 1.578c0.492 0.595-0.492 2.459-2.832 2.624s-4.659-3.31-5.019-4.414zM17.726 2l0.121 0.007 0.454 0.071c5.071 0.837 7.804 2.75 8.2 5.74 0.64 4.833-4.284 8.122-5.98 10.181s-1.958 5.614-2.042 5.695c-0.084 0.081-1.296 0.13-1.399 0-0.030-0.038-0.047-1.454-0.051-4.248v-2.627c0.003-3.432 0.019-8.149 0.047-14.15 0-0.032 0.003-0.064 0.007-0.096 0.055-0.367 0.396-0.621 0.763-0.566zM14.916 2.574c0.005 0.032 0.007 0.064 0.007 0.096 0.028 6.002 0.044 10.718 0.047 14.15v2.627c-0.004 2.794-0.021 4.21-0.051 4.248-0.103 0.13-1.314 0.081-1.399 0s-0.346-3.636-2.042-5.695c-1.696-2.059-6.621-5.348-5.98-10.181 0.396-2.99 3.13-4.904 8.2-5.74l0.454-0.071c0.367-0.055 0.709 0.199 0.763 0.566zM29.391 10.434c0 0.065 1.93 7.13-1.081 9.040-1.661 1.054-3.296 1.267-4.819 2.132-0.771 0.439-1.672 1.195-2.056 1.393s-1.051 0.23-1.066 0c-0.016-0.23-0.016-2.071 1.451-4.006s2.732-1.961 4.739-4.626c2.008-2.665 1.868-3.868 1.868-3.933s0.964-0.065 0.964 0zM2.609 10.434c0-0.065 0.964-0.065 0.964 0s-0.139 1.269 1.868 3.933c2.008 2.665 3.273 2.691 4.739 4.626s1.466 3.776 1.451 4.006c-0.016 0.23-0.682 0.198-1.066 0s-1.285-0.955-2.056-1.393c-1.522-0.865-3.157-1.078-4.819-2.132-3.011-1.909-1.081-8.974-1.081-9.040z"></path>
</symbol></defs><use xlink:href="#icon_Sports" fill="#FFFFFF"></use></svg>