<svg xmlns:xlink="http://www.w3.org/1999/xlink" xmlns="http://www.w3.org/2000/svg" class="s1yetyrx icon" width="32"  height="32" ><defs><symbol id="icon_Tennis" viewBox="0 0 32 32">
<path d="M2.083 17.332c3.981-0.549 7.296-2.385 10.090-5.184 2.786-2.792 4.613-6.102 5.155-10.053 6.010 0.47 11.885 5.297 12.614 12.595-3.956 0.547-7.276 2.374-10.074 5.168-2.8 2.795-4.627 6.114-5.179 10.073-6.347-0.524-11.944-5.62-12.606-12.598z"></path>
<path d="M29.985 16.459c-0.12 7.389-6.354 13.438-13.513 13.527 0.602-5.913 6.639-12.642 13.513-13.527z"></path>
<path d="M15.562 2.014c-0.735 6.301-6.95 12.736-13.547 13.556 0.166-3.648 1.475-6.801 4.039-9.395 2.607-2.638 5.799-3.986 9.508-4.162z"></path>
</symbol></defs><use xlink:href="#icon_Tennis" fill="#FFFFFF"></use></svg>