<svg xmlns:xlink="http://www.w3.org/1999/xlink" xmlns="http://www.w3.org/2000/svg" class="s1yetyrx icon" width="32"  height="32" ><defs><symbol id="icon_Blackjack" viewBox="0 0 32 32">
<path d="M18.459 3.276c0.019 0.005 0.039 0.009 0.059 0.012 3.676 1.568 6.945 3.159 10.305 4.928 0.182 0.082 0.313 0.292 0.352 0.533 0.024 0.139 0.018 0.281-0.016 0.418-1.936 7.268-5.059 13.812-8.959 19.317-0.113 0.179-0.323 0.275-0.534 0.245-0.093-0.019-0.176-0.069-0.237-0.141-2.703-2.758-5.61-5.313-8.697-7.644-0.057-0.041-0.105-0.093-0.143-0.152-0.037-0.065-0.065-0.135-0.083-0.207-0.034-0.14-0.007-0.287 0.074-0.406 3.089-4.565 5.764-10.209 7.289-16.49 0.032-0.147 0.123-0.274 0.253-0.352 0.099-0.065 0.221-0.087 0.337-0.060zM12.075 3.83l0.122 0.025 0.059 0.028c1.51 0.772 2.922 1.475 4.313 2.165-0.499 1.668-1.097 3.348-1.795 5.037-0.16 0.388-0.341 0.807-0.539 1.248-0.588 0.095-1.118 0.417-1.448 0.96-0.344 0.566-0.371 1.18-0.379 1.491-1.694-0.639-3.161-0.095-3.562 0.953-0.339 0.888-0.191 2.015 0.872 2.576 0.203 0.107 0.615 0.229 1.12 0.275l-0.306 0.449c-0.383 0.545-1.24 1.537-0.568 2.082 1.79 1.452 3.553 2.9 4.648 3.82 0.081 0.068 0.159 0.131 0.236 0.191-0.632 0.966-1.27 1.895-1.91 2.774-0.136 0.198-0.545 0.36-0.872 0.168-2.574-2.289-5.316-4.514-8.092-6.408l-0.926-0.619-0.030-0.028c-0.101-0.090-0.171-0.208-0.198-0.336-0.027-0.143 0.005-0.29 0.089-0.411 3.387-4.69 6.507-10.781 8.614-16.097 0.055-0.137 0.165-0.248 0.307-0.308l0.121-0.031 0.124-0.003zM18.165 12.928c-1.252 0.488-1.546 1.631-1.513 2.679 0.084 1.365 0.26 3.205 0.444 4.436 0.005 0.049 0.026 0.085 0.062 0.11s0.087 0.024 0.139 0.012c1.334-0.393 2.283-0.729 3.392-1.241s2.553-1.047 2.862-2.65c0.154-0.795-0.354-1.573-0.861-1.817-0.36-0.219-1.223-0.28-1.801 0.109-0.052 0.024-0.103 0.025-0.139 0s-0.062-0.061-0.062-0.11c0.062-0.711-0.392-1.198-0.778-1.404-0.401-0.206-1.158-0.354-1.746-0.125zM19.169 6.142c-0.26 0.53-0.529 1.052-0.808 1.564l-0.426 0.761 0.737 0.325 0.14-0.263 0.495 0.223-0.028 0.315 0.378 0.172 0.372 0.18c0.077-0.62 0.144-1.248 0.203-1.878l0.081-0.945-1.145-0.455zM13.781 6.595c-0.196 0.381-0.509 0.931-0.699 1.318-0.079 0.155-0.134 0.265-0.173 0.335s-0.097 0.12-0.213 0.12c-0.069 0-0.15-0.022-0.209-0.041l-0.079-0.026c-0.068 0.123-0.172 0.322-0.309 0.597 0.226 0.089 0.425 0.144 0.597 0.166 0.258 0.033 0.482 0.011 0.619-0.055 0.149-0.077 0.28-0.199 0.366-0.34l0.056-0.109 0.808-1.627-0.171-0.073-0.594-0.265zM19.502 7.065l0.081 0.037-0.064 0.467-0.078 0.476-0.323-0.14 0.384-0.841z"></path>
</symbol></defs><use xlink:href="#icon_Blackjack" fill="#FFFFFF"></use></svg>