<svg xmlns:xlink="http://www.w3.org/1999/xlink" xmlns="http://www.w3.org/2000/svg" class="s1yetyrx icon" width="32"  height="32" ><defs><symbol id="icon_TableGame" viewBox="0 0 32 32">
<path d="M23.572 17.798c0.029-0.002 0.060 0.016 0.090 0.024-0.011 0.028-0.020 0.058-0.035 0.084l-0.172 0.283c-0.028 0.048-0.054 0.096-0.077 0.146-0.089 0.19-0.002 0.364 0.202 0.406 0.321 0.066 0.643 0.126 0.966 0.171 0.108 0.015 0.23 0 0.329-0.040 0.321-0.128 0.543-0.374 0.724-0.663 0.086-0.138 0.125-0.151 0.274-0.084 0.464 0.207 0.855 0.512 1.166 0.924 0.033 0.044 0.077 0.079 0.115 0.119l1.124 1.547c0.028 0.053 0.054 0.107 0.084 0.159 0.137 0.232 0.129 0.477 0.102 0.724 0 0.004-0.012 0.006-0.030 0.013-0.028-0.034-0.059-0.070-0.087-0.108-0.244-0.334-0.488-0.667-0.728-1.004-0.059-0.083-0.115-0.108-0.203-0.058-0.058 0.033-0.126 0.050-0.19 0.073-0.155 0.056-0.317 0.098-0.463 0.17-0.282 0.139-0.458 0.366-0.504 0.696-0.036 0.255-0.082 0.507-0.133 0.759-0.052 0.256 0.071 0.437 0.314 0.448 0.022 0.001 0.045 0.002 0.065-0.003 0.164-0.041 0.325-0.091 0.491-0.122 0.097-0.018 0.203-0.024 0.299-0.002 0.045 0.010 0.077 0.099 0.115 0.153l0.013 0.018c0.19 0.256 0.376 0.514 0.572 0.765 0.085 0.109 0.090 0.208 0.039 0.321-0.058 0.128-0.113 0.258-0.167 0.389-0.191 0.461-0.428 0.894-0.697 1.309-0.476 0.734-1.040 1.389-1.663 1.994-0.107 0.104-0.125 0.104-0.216-0.023-0.35-0.49-0.697-0.982-1.050-1.47-0.032-0.044-0.092-0.077-0.145-0.095-0.227-0.077-0.417 0.016-0.588 0.136-0.431 0.302-0.855 0.612-1.278 0.926-0.087 0.065-0.17 0.146-0.228 0.238-0.070 0.113-0.121 0.252-0.049 0.389 0.074 0.14 0.169 0.27 0.263 0.397 0.288 0.391 0.579 0.779 0.869 1.167 0.041 0.055 0.037 0.093-0.023 0.124-0.143 0.073-0.284 0.15-0.427 0.224-0.499 0.26-1.021 0.471-1.557 0.646-0.769 0.252-1.565 0.39-2.382 0.434-0.055 0.003-0.128-0.024-0.168-0.062-0.081-0.077-0.149-0.169-0.214-0.26-0.171-0.241-0.341-0.482-0.503-0.729-0.025-0.038-0.029-0.11-0.012-0.151 0.006-0.015 0.027-0.029 0.050-0.039l0.052-0.081 0.061-0.11c0-0.001 0.001-0.002 0.001-0.003l0.001-0.018c0.006-0.016 0.010-0.029 0.021-0.041l0.007-0.007c0.006-0.017 0.014-0.032 0.026-0.043l0.012-0.006 0.029-0.071 0.016-0.023 0.014-0.050c0.002-0.005 0.004-0.010 0.008-0.014l0.015-0.040c0.003-0.007 0.007-0.012 0.011-0.016 0.002-0.014 0.012-0.039 0.027-0.069 0.058-0.116 0.033-0.23 0.007-0.347-0.005-0.024-0.030-0.055-0.053-0.064-0.124-0.052-0.251-0.082-0.38-0.102l-0.195-0.025c-0.13-0.015-0.26-0.035-0.389-0.054-0.112-0.016-0.226-0.055-0.334-0.047-0.305 0.023-0.541 0.182-0.731 0.408-0.106 0.126-0.195 0.267-0.295 0.398-0.11 0.143-0.113 0.142-0.002 0.294 0.245 0.337 0.491 0.674 0.736 1.012 0.023 0.031 0.037 0.068 0.055 0.103l-0.018 0.025c-0.047-0.015-0.093-0.033-0.14-0.045-0.14-0.035-0.281-0.067-0.422-0.1l-1.512-2.081c-0.079-0.182-0.149-0.368-0.238-0.545-0.134-0.267-0.181-0.548-0.21-0.834-0.010-0.093 0.041-0.126 0.12-0.15 0.182-0.055 0.377-0.092 0.536-0.186 0.273-0.163 0.533-0.355 0.549-0.732 0.001-0.021 0.017-0.040 0.020-0.062 0.052-0.307 0.127-0.612 0.095-0.931-0.005-0.055-0.055-0.123-0.103-0.157-0.143-0.1-0.294-0.071-0.441-0.025-0.115 0.036-0.231 0.069-0.346 0.103l-0.027-0.030c0.023-0.054 0.046-0.108 0.070-0.161 0.109-0.24 0.21-0.484 0.33-0.718 0.099-0.192 0.216-0.374 0.333-0.555 0.157-0.244 0.316-0.488 0.485-0.723 0.108-0.151 0.23-0.294 0.356-0.431 0.295-0.322 0.59-0.644 0.896-0.956 0.153-0.156 0.156-0.14 0.309 0.034 0.068 0.077 0.169 0.164 0.259 0.173 0.22 0.022 0.418-0.060 0.594-0.19 0.224-0.166 0.457-0.321 0.677-0.494 0.234-0.184 0.513-0.317 0.682-0.581 0.092-0.144 0.171-0.289 0.065-0.47-0.032-0.055-0.070-0.107-0.108-0.158-0.046-0.061-0.047-0.108 0.021-0.144 0.070-0.036 0.139-0.074 0.208-0.112 0.787-0.426 1.613-0.76 2.489-0.977 0.483-0.12 0.977-0.188 1.476-0.228zM15.418 1.588l13.058 3.744c1.205 0.345 1.901 1.602 1.556 2.807l-2.677 9.338c-2.187-1.681-6.285-1.284-9.876 1.138-4.031 2.719-5.936 6.986-4.362 9.659l0.030 0.048-4.985-1.429c-1.205-0.345-1.901-1.602-1.556-2.807l6.005-20.943c0.345-1.205 1.602-1.901 2.807-1.556zM21.009 19.862c-1.273 0.464-2.367 1.202-3.301 2.174-0.56 0.583-1.030 1.235-1.341 1.999-0.215 0.528-0.348 1.076-0.269 1.669 0.057 0.421 0.221 0.795 0.527 1.104 0.344 0.348 0.766 0.526 1.225 0.61 0.768 0.141 1.508 0.035 2.228-0.183 0.895-0.272 1.714-0.694 2.471-1.237 0.262-0.217 0.533-0.422 0.783-0.652 0.59-0.543 1.107-1.153 1.498-1.866 0.311-0.567 0.538-1.168 0.548-1.842 0.011-0.803-0.305-1.434-1.035-1.833-0.331-0.181-0.688-0.263-1.053-0.295-0.797-0.069-1.551 0.085-2.28 0.351zM23.395 20.101c0.439 0.096 0.827 0.29 1.103 0.68 0.266 0.375 0.327 0.79 0.285 1.221-0.054 0.563-0.267 1.063-0.549 1.532-0.498 0.829-1.165 1.493-2 2.103-0.78 0.556-1.695 1.013-2.736 1.199-0.452 0.081-0.909 0.097-1.371-0.005-0.948-0.209-1.469-0.928-1.373-1.894 0.056-0.563 0.267-1.063 0.547-1.532 0.434-0.728 1.003-1.332 1.66-1.849 0.839-0.66 1.763-1.161 2.819-1.406 0.529-0.122 1.066-0.17 1.615-0.049zM10.988 2.806l-5.215 19.468c-0.009 0.035-0.018 0.069-0.025 0.104-0.081-0.155-0.146-0.324-0.19-0.503l-3.609-14.477c-0.303-1.216 0.437-2.447 1.653-2.751l7.388-1.841zM5.779 6.302c-0.381 0.013-0.721 0.106-1.020 0.278s-0.529 0.404-0.693 0.695c-0.164 0.291-0.239 0.616-0.227 0.973 0.011 0.313 0.089 0.597 0.234 0.854s0.342 0.466 0.592 0.629c0.25 0.163 0.532 0.265 0.847 0.306 0.21 0.206 0.399 0.365 0.566 0.478s0.333 0.192 0.496 0.238c0.163 0.046 0.345 0.065 0.544 0.058 0.206-0.007 0.395-0.052 0.565-0.136s0.314-0.201 0.429-0.353l-0.462-0.51c-0.156 0.174-0.335 0.265-0.537 0.272-0.079 0.003-0.153-0.010-0.221-0.039s-0.138-0.079-0.209-0.153c0.37-0.147 0.66-0.38 0.871-0.699s0.309-0.681 0.295-1.086c-0.012-0.357-0.11-0.676-0.294-0.955s-0.43-0.494-0.74-0.645c-0.31-0.151-0.655-0.22-1.037-0.206zM14.735 3.891l-1.583 5.178 1.45 0.443 0.396-1.295 0.726-0.417 0.905 2.331 1.701 0.52-1.345-3.566 2.817-1.646-1.613-0.493-2.663 1.54 0.658-2.153-1.45-0.443zM5.808 7.147c0.182-0.006 0.348 0.031 0.499 0.112s0.272 0.198 0.363 0.351c0.091 0.153 0.141 0.331 0.148 0.534s-0.030 0.384-0.11 0.543c-0.080 0.159-0.193 0.285-0.338 0.376s-0.308 0.14-0.49 0.146c-0.182 0.006-0.348-0.031-0.499-0.112s-0.272-0.198-0.363-0.351c-0.091-0.153-0.141-0.331-0.148-0.534s0.030-0.384 0.11-0.543c0.080-0.159 0.193-0.285 0.338-0.376s0.308-0.14 0.49-0.146z"></path>
</symbol></defs><use xlink:href="#icon_TableGame" fill="#FFFFFF"></use></svg>