<svg xmlns:xlink="http://www.w3.org/1999/xlink" xmlns="http://www.w3.org/2000/svg" class="s1yetyrx icon" width="32"  height="32" ><defs><symbol id="icon_Wallet" viewBox="0 0 32 32">
<path d="M21.787 4.081c2.62 0 4.765 2.087 4.871 4.692l0.004 0.201-0.002 0.842 0.489 0.001c1.633 0 2.971 1.289 3.058 2.906l0.005 0.168v7.82c0 1.666-1.305 3.031-2.942 3.12l-0.171 0.005-0.441 0.001c-0.090 2.2-1.85 3.975-4.039 4.077l-0.2 0.005h-15.607c-2.703 0-4.914-2.153-5.020-4.841l-0.004-0.203v-14.386c0-2.365 1.865-4.301 4.196-4.404l0.195-0.004h15.607zM28.304 16.449c-0.261 0.1-0.539 0.163-0.829 0.185l-0.22 0.008h-4.832c-0.687 0-1.253 0.528-1.317 1.201l-0.006 0.128v2.622c0 0.69 0.526 1.258 1.196 1.323l0.127 0.006h4.675c0.623 0 1.137-0.477 1.199-1.087l0.006-0.123v-4.263zM24.252 17.834c0.759 0 1.375 0.616 1.375 1.376s-0.616 1.375-1.375 1.375-1.375-0.616-1.375-1.375c0-0.76 0.616-1.376 1.375-1.376zM27.149 11.731h-0.494l-0.006 2.844c0.004 0.050 0.007 0.101 0.009 0.152l0.598 0.001c0.54 0 0.985-0.412 1.042-0.938l0.006-0.114v-0.783c0-0.6-0.456-1.095-1.038-1.154l-0.118-0.006zM21.787 6.378h-15.607c-1.111 0-2.024 0.87-2.098 1.967l-0.005 0.144v0.303c0 1.21 0.997 1.791 1.97 1.839l0.132 0.003h16.24c0.615 0 1.202 0.133 1.731 0.371l0.223 0.108v-2.139c0-1.431-1.16-2.596-2.586-2.596z"></path>
</symbol></defs><use xlink:href="#icon_Wallet" fill="#FFFFFF"></use></svg>