<svg xmlns:xlink="http://www.w3.org/1999/xlink" xmlns="http://www.w3.org/2000/svg" class="s1yetyrx icon" width="32"  height="32" ><defs><symbol id="icon_VipClub" viewBox="0 0 32 32">
<path d="M6.539 13.547l1.818-5.263c0.175-0.507 0.728-0.776 1.235-0.601 0.138 0.048 0.263 0.125 0.366 0.228l3.654 3.618-0.874 3.504h-4.891l-1.309-1.486z"></path>
<path d="M25.554 13.547l-1.818-5.263c-0.175-0.507-0.728-0.776-1.235-0.601-0.138 0.048-0.263 0.125-0.366 0.228l-3.654 3.618 0.874 3.504h4.891l1.309-1.486z"></path>
<path d="M16.562 4.31c0.228 0.114 0.413 0.299 0.526 0.528l3.814 7.734c0.285 0.577 0.983 0.814 1.56 0.53 0.008-0.004 0.016-0.008 0.023-0.012l6.565-3.424c0.571-0.297 1.274-0.074 1.569 0.497 0.157 0.303 0.173 0.659 0.044 0.974-1.677 4.145-2.742 7.215-3.193 9.211-0.495 2.188-0.915 4.412-1.261 6.672-0.069 0.454-0.458 0.79-0.918 0.793h-18.697c-0.479 0.002-0.881-0.358-0.932-0.834-0.201-1.83-0.57-4.040-1.105-6.63-0.491-2.375-1.56-5.414-3.207-9.116-0.264-0.587-0.002-1.276 0.585-1.539 0.321-0.144 0.689-0.135 1.002 0.025l6.634 3.386c0.573 0.293 1.275 0.065 1.567-0.508l0.006-0.011 3.854-7.752c0.286-0.576 0.986-0.811 1.562-0.524zM15.888 14.975l-3.184 4.655 3.184 4.503 3.295-4.503-3.295-4.655z"></path>
</symbol></defs><use xlink:href="#icon_VipClub" fill="#FFFFFF"></use></svg>